<?xml version="1.0" encoding="utf-8"?>
<!-- Generator: Adobe Illustrator 22.0.1, SVG Export Plug-In . SVG Version: 6.00 Build 0)  -->
<svg version="1.1" id="Слой_1" xmlns="http://www.w3.org/2000/svg" xmlns:xlink="http://www.w3.org/1999/xlink" x="0px" y="0px"
	 viewBox="0 0 496 496" style="enable-background:new 0 0 496 496;" xml:space="preserve">
<path d="M373.6,274.7l-13.7-36.5c-1.1-13.9-14.3-25.2-34.9-33.8l16.9-36.6c0.7,0.1,1.4,0.2,2.2,0.2c13.2,0,24-10.8,24-24
	s-10.8-24-24-24s-24,10.8-24,24c0,6.7,2.8,12.8,7.3,17.2L309.8,199c-10.4-3.2-22-6-34.4-8.2l38.5-143c12.4-1,22.1-11.2,22.1-23.8
	c0-13.2-10.8-24-24-24s-24,10.8-24,24c0,8.2,4.1,15.4,10.4,19.7l-38.9,144.6c-10.7-1.4-21.9-2.5-33.3-3.3l5.5-98.5
	C241.1,83.4,248,74.5,248,64c0-13.2-10.8-24-24-24s-24,10.8-24,24c0,10.3,6.5,19,15.6,22.4l-5.4,97.9c-6-0.2-12.1-0.3-18.2-0.3
	c-6.7,0-13.3,0.1-20,0.4l-3.7-66C177.5,115,184,106.3,184,96c0-13.2-10.8-24-24-24s-24,10.8-24,24c0,10.5,6.9,19.4,16.4,22.6
	l3.7,66.6c-10.8,0.7-21.3,1.8-31.5,3.1L85.6,43.7C91.9,39.4,96,32.2,96,24C96,10.8,85.2,0,72,0S48,10.8,48,24
	c0,12.6,9.8,22.8,22.1,23.8l38.5,143c-12.4,2.2-24,4.9-34.4,8.2l-17.5-37.8c4.5-4.4,7.3-10.4,7.3-17.2c0-13.2-10.8-24-24-24
	s-24,10.8-24,24s10.8,24,24,24c0.7,0,1.4-0.2,2.2-0.2l16.9,36.6c-20.7,8.6-33.9,19.9-34.9,33.8l-13.7,36.5
	C3.5,293.2,0,312.5,0,332.2C0,422.5,73.5,496,163.8,496h56.5c90.3,0,163.8-73.5,163.8-163.8C384,312.5,380.5,293.2,373.6,274.7z
	 M344,136c4.4,0,8,3.6,8,8s-3.6,8-8,8s-8-3.6-8-8S339.6,136,344,136z M312,16c4.4,0,8,3.6,8,8s-3.6,8-8,8s-8-3.6-8-8
	S307.6,16,312,16z M224,56c4.4,0,8,3.6,8,8s-3.6,8-8,8s-8-3.6-8-8S219.6,56,224,56z M160,88c4.4,0,8,3.6,8,8s-3.6,8-8,8s-8-3.6-8-8
	S155.6,88,160,88z M64,24c0-4.4,3.6-8,8-8s8,3.6,8,8s-3.6,8-8,8S64,28.4,64,24z M32,144c0-4.4,3.6-8,8-8s8,3.6,8,8s-3.6,8-8,8
	S32,148.4,32,144z M65.8,219l14.9,32.4l14.5-6.7l-14.3-31c9.2-2.8,19.9-5.3,31.8-7.3l7.5,27.8l15.5-4.2l-7-26
	c8.8-1.2,18.3-2.1,28.2-2.7l3.1,55.3l16-0.9l-3.1-55.2c6.2-0.2,12.5-0.4,19.1-0.4c5.9,0,11.7,0.1,17.3,0.3l-1.3,23.3l16,0.9
	l1.3-23.4c10.6,0.7,20.6,1.6,30,2.9l-7,26l15.5,4.2l7.5-27.8c12,2.1,22.6,4.6,31.8,7.3l-14.3,31l14.5,6.7l14.9-32.4
	c16.7,6.8,25.8,14.4,25.8,21c0,16.7-57.8,40-152,40S40,256.7,40,240C40,233.4,49.1,225.8,65.8,219z M220.2,480h-56.5
	C82.3,480,16,413.7,16,332.2c0-17.8,3.2-35.2,9.4-51.9l7.8-20.7c7.2,7.2,18.2,13.3,32,18.4c-6,9.7-9.2,20.9-9.2,32.6v9.4h16v-9.4
	c0-10.1,3.2-19.6,9.1-27.6c12.6,3.5,26.7,6.3,41.7,8.4c-7,10.3-10.8,22.5-10.8,35.2v9.4h16v-9.4c0-12.5,4.8-24.2,13.7-33l0,0
	c13.8,1.3,28.1,2.1,42.4,2.3V352h16v-56.1c14.3-0.2,28.6-1,42.4-2.3l0,0c8.8,8.8,13.7,20.5,13.7,33v9.4h16v-9.4
	c0-12.8-3.8-24.9-10.8-35.2c15-2.1,29.1-4.9,41.7-8.4c5.9,8,9.1,17.5,9.1,27.6v9.4h16v-9.4c0-11.7-3.3-22.9-9.2-32.6
	c13.8-5.1,24.9-11.2,32-18.4l7.8,20.7c6.2,16.6,9.4,34.1,9.4,51.9C368,413.7,301.7,480,220.2,480z"/>
</svg>
