<?xml version="1.0" encoding="utf-8"?>
<!-- Generator: Adobe Illustrator 22.0.1, SVG Export Plug-In . SVG Version: 6.00 Build 0)  -->
<svg version="1.1" id="Capa_1" xmlns="http://www.w3.org/2000/svg" xmlns:xlink="http://www.w3.org/1999/xlink" x="0px" y="0px"
	 viewBox="0 0 512 512" style="enable-background:new 0 0 512 512;" xml:space="preserve">
<g>
	<g>
		<path d="M497.3,190.4c0-10.7,4.2-20.8,11.7-28.3c3.9-3.9,3.9-10.2,0-14.1L472,110.8c-1.9-1.9-4.4-2.9-7.1-2.9s-5.2,1.1-7.1,2.9
			c-7.6,7.6-17.6,11.7-28.3,11.7s-20.8-4.2-28.3-11.7c-15.6-15.6-15.6-41,0-56.6c3.9-3.9,3.9-10.2,0-14.1L364.1,2.9
			c-3.9-3.9-10.2-3.9-14.1,0c-7.6,7.6-17.6,11.7-28.3,11.7c-10.7,0-20.8-4.2-28.3-11.7C289.4-1,283-1,279.1,2.9L2.9,279.1
			C1.1,281,0,283.5,0,286.2s1.1,5.2,2.9,7.1c7.6,7.6,11.7,17.6,11.7,28.3s-4.2,20.8-11.7,28.3c-3.9,3.9-3.9,10.2,0,14.1L40,401.2
			c3.9,3.9,10.2,3.9,14.1,0c7.6-7.6,17.6-11.7,28.3-11.7s20.8,4.2,28.3,11.7c7.6,7.6,11.7,17.6,11.7,28.3c0,10.7-4.2,20.8-11.7,28.3
			c-1.9,1.9-2.9,4.4-2.9,7.1s1.1,5.2,2.9,7.1l37.1,37.1c2,2,4.5,2.9,7.1,2.9c2.6,0,5.1-1,7.1-2.9c7.6-7.6,17.6-11.7,28.3-11.7
			s20.8,4.2,28.3,11.7c3.9,3.9,10.2,3.9,14.1,0l276.2-276.2c1.9-1.9,2.9-4.4,2.9-7.1s-1.1-5.2-2.9-7.1
			C501.5,211.2,497.3,201.1,497.3,190.4z M225.2,488.4c-10.1-7.2-22.2-11.1-34.8-11.1s-24.7,3.9-34.8,11.1l-24.1-24.1
			c7.2-10.1,11.1-22.2,11.1-34.8c0-16-6.2-31.1-17.6-42.5c-11.3-11.3-26.4-17.6-42.5-17.6c-12.7,0-24.7,3.9-34.8,11.1l-24.1-24.1
			c7.2-10.1,11.1-22.2,11.1-34.8s-3.9-24.7-11.1-34.8L286.8,23.6c10.1,7.2,22.2,11.1,34.8,11.1c12.7,0,24.7-3.9,34.8-11.1l24.1,24.1
			C363.9,71.1,366,104,387,125c11.3,11.3,26.4,17.6,42.5,17.6c12.7,0,24.7-3.9,34.8-11.1l24.1,24.1c-7.2,10.1-11.1,22.2-11.1,34.8
			c0,12.7,3.9,24.7,11.1,34.8L225.2,488.4z"/>
	</g>
</g>
<g>
	<g>
		<path d="M459.7,218.7L293.3,52.3c-3.9-3.9-10.2-3.9-14.1,0L52.3,279.1c-1.9,1.9-2.9,4.4-2.9,7.1s1.1,5.2,2.9,7.1l166.4,166.4
			c2,2,4.5,2.9,7.1,2.9s5.1-1,7.1-2.9l226.8-226.8c1.9-1.9,2.9-4.4,2.9-7.1C462.6,223.2,461.6,220.6,459.7,218.7z M225.8,438.5
			L73.5,286.2L286.2,73.5l152.3,152.3L225.8,438.5z"/>
	</g>
</g>
<g>
	<g>
		<path d="M266.7,302.7l-20.1-15.4l-0.7-25.4c-0.1-3.7-2.2-7-5.5-8.7c-3.3-1.7-7.2-1.4-10.2,0.7l-20.9,14.4l-24.3-7.2
			c-3.5-1-7.3-0.1-9.9,2.5c-2.6,2.6-3.6,6.4-2.5,9.9l7.2,24.3l-14.4,20.9c-2.1,3-2.3,6.9-0.7,10.2s5,5.4,8.7,5.5l25.4,0.7l15.4,20.1
			c1.9,2.5,4.9,3.9,7.9,3.9c0.5,0,1,0,1.6-0.1c3.6-0.6,6.6-3.1,7.9-6.5l8.5-23.9l23.9-8.5c3.5-1.2,6-4.2,6.5-7.9
			C271,308.6,269.6,304.9,266.7,302.7z M228.8,311.3c-2.8,1-5.1,3.2-6.1,6.1l-3.9,11l-7.1-9.3c-1.8-2.4-4.7-3.8-7.7-3.9l-11.7-0.3
			l6.6-9.7c1.7-2.5,2.2-5.6,1.3-8.5l-3.3-11.2l11.2,3.3c2.9,0.9,6,0.4,8.5-1.3l9.7-6.6l0.3,11.7c0.1,3,1.5,5.8,3.9,7.7l9.3,7.1
			L228.8,311.3z"/>
	</g>
</g>
<g>
	<g>
		<path d="M338.5,173.5c-3.9-3.9-10.2-3.9-14.1,0L274.8,223c-3.9,3.9-3.9,10.2,0,14.1c2,2,4.5,2.9,7.1,2.9c2.6,0,5.1-1,7.1-2.9
			l49.5-49.5C342.4,183.8,342.4,177.4,338.5,173.5z"/>
	</g>
</g>
<g>
	<g>
		<path d="M287.8,163.8c-3.9-3.9-10.2-3.9-14.1,0l-29,29c-3.9,3.9-3.9,10.2,0,14.1c2,2,4.5,2.9,7.1,2.9s5.1-1,7.1-2.9l29-29
			C291.7,174,291.7,167.7,287.8,163.8z"/>
	</g>
</g>
<g>
	<g>
		<path d="M308.3,143.3c-3.9-3.9-10.2-3.9-14.1,0l-0.2,0.2c-3.9,3.9-3.9,10.2,0,14.1c2,2,4.5,2.9,7.1,2.9c2.5,0,5.1-1,7-2.9l0.2-0.2
			C312.1,153.6,312.2,147.2,308.3,143.3z"/>
	</g>
</g>
<g>
	<g>
		<path d="M319.4,253.1c-3.9-3.9-10.2-3.9-14.1,0l-0.2,0.2c-3.9,3.9-3.9,10.2,0,14.1c2,2,4.5,2.9,7.1,2.9c2.6,0,5.1-1,7.1-2.9
			l0.2-0.2C323.3,263.3,323.3,257,319.4,253.1z"/>
	</g>
</g>
<g>
	<g>
		<path d="M368.7,203.8c-3.9-3.9-10.2-3.9-14.1,0l-29,29c-3.9,3.9-3.9,10.2,0,14.1c2,2,4.5,2.9,7.1,2.9c2.6,0,5.1-1,7.1-2.9l29-29
			C372.6,214,372.6,207.7,368.7,203.8z"/>
	</g>
</g>
</svg>
