<?xml version="1.0" encoding="utf-8"?>
<!-- Generator: Adobe Illustrator 19.2.1, SVG Export Plug-In . SVG Version: 6.00 Build 0)  -->
<svg version="1.1"
	 id="svg2566" inkscape:version="0.92.2 (5c3e80d, 2017-08-06)" sodipodi:docname="Get it on Google Play (2016) (Print 2).svg" xmlns:cc="http://creativecommons.org/ns#" xmlns:dc="http://purl.org/dc/elements/1.1/" xmlns:inkscape="http://www.inkscape.org/namespaces/inkscape" xmlns:rdf="http://www.w3.org/1999/02/22-rdf-syntax-ns#" xmlns:sodipodi="http://sodipodi.sourceforge.net/DTD/sodipodi-0.dtd" xmlns:svg="http://www.w3.org/2000/svg"
	 xmlns="http://www.w3.org/2000/svg" xmlns:xlink="http://www.w3.org/1999/xlink" x="0px" y="0px" viewBox="0 0 160 44"
	 style="enable-background:new 0 0 160 44;" xml:space="preserve">
<style type="text/css">
</style>
<sodipodi:namedview  bordercolor="#666666" borderopacity="1.0" id="base" inkscape:current-layer="layer1" inkscape:cx="376.28262" inkscape:cy="171.49272" inkscape:document-units="px" inkscape:pageopacity="0.0" inkscape:pageshadow="2" inkscape:window-height="705" inkscape:window-maximized="1" inkscape:window-width="1366" inkscape:window-x="-8" inkscape:window-y="-8" inkscape:zoom="0.7" pagecolor="#ffffff" showgrid="false" units="px">
	</sodipodi:namedview>
<g>
	<path class="st0" d="M137.9,44H22.1C9.9,44,0,34.1,0,22S9.9,0,22.1,0h115.9C150.1,0,160,9.9,160,22S150.1,44,137.9,44z M22.1,1
		C10.5,1,1,10.4,1,22s9.5,21,21.1,21h115.9c11.6,0,21.1-9.4,21.1-21s-9.5-21-21.1-21H22.1z"/>
</g>
<g>
	<g>
		<path class="st0" d="M56.1,14.4l-0.4,1.2h-0.5l1.3-3.9h0.6l1.3,3.9h-0.5l-0.4-1.2H56.1z M57.4,14L57,12.9
			c-0.1-0.3-0.1-0.5-0.2-0.7h0c-0.1,0.2-0.1,0.5-0.2,0.7L56.2,14H57.4z"/>
		<path class="st0" d="M59,15.6v-3.9h0.6l1.3,2c0.3,0.5,0.5,0.9,0.7,1.3l0,0c0-0.5-0.1-1-0.1-1.6v-1.6h0.5v3.9h-0.5l-1.2-2
			c-0.3-0.4-0.5-0.9-0.7-1.3l0,0c0,0.5,0,1,0,1.6v1.7H59z"/>
		<path class="st0" d="M62.8,11.7c0.3,0,0.7-0.1,1.1-0.1c0.7,0,1.2,0.2,1.6,0.5c0.3,0.3,0.6,0.8,0.6,1.4c0,0.6-0.2,1.2-0.6,1.5
			c-0.4,0.4-1,0.6-1.7,0.6c-0.4,0-0.7,0-0.9,0V11.7z M63.3,15.2c0.1,0,0.3,0,0.5,0c1.1,0,1.7-0.6,1.7-1.7c0-0.9-0.5-1.5-1.6-1.5
			c-0.3,0-0.5,0-0.6,0.1V15.2z"/>
		<path class="st0" d="M66.7,11.7c0.3-0.1,0.6-0.1,1-0.1c0.5,0,0.9,0.1,1.1,0.3c0.2,0.2,0.3,0.4,0.3,0.7c0,0.5-0.3,0.9-0.7,1v0
			c0.3,0.1,0.5,0.4,0.6,0.8c0.1,0.5,0.2,0.9,0.3,1.1h-0.5c-0.1-0.1-0.2-0.4-0.3-0.9c-0.1-0.5-0.3-0.7-0.8-0.8h-0.5v1.7h-0.5V11.7z
			 M67.2,13.5h0.5c0.5,0,0.9-0.3,0.9-0.7c0-0.5-0.4-0.7-0.9-0.7c-0.2,0-0.4,0-0.5,0V13.5z"/>
		<path class="st0" d="M73.2,13.6c0,1.3-0.8,2.1-1.8,2.1c-1,0-1.8-0.8-1.8-2c0-1.2,0.8-2.1,1.8-2.1C72.5,11.6,73.2,12.4,73.2,13.6z
			 M70.1,13.7c0,0.8,0.5,1.6,1.3,1.6c0.8,0,1.3-0.7,1.3-1.6c0-0.8-0.4-1.6-1.3-1.6C70.5,12,70.1,12.8,70.1,13.7z"/>
		<path class="st0" d="M74.3,11.7v3.9h-0.5v-3.9H74.3z"/>
		<path class="st0" d="M75.2,11.7c0.3,0,0.7-0.1,1.1-0.1c0.7,0,1.2,0.2,1.6,0.5c0.3,0.3,0.6,0.8,0.6,1.4c0,0.6-0.2,1.2-0.6,1.5
			c-0.4,0.4-1,0.6-1.7,0.6c-0.4,0-0.7,0-0.9,0V11.7z M75.7,15.2c0.1,0,0.3,0,0.5,0c1.1,0,1.7-0.6,1.7-1.7c0-0.9-0.5-1.5-1.6-1.5
			c-0.3,0-0.5,0-0.6,0.1V15.2z"/>
		<path class="st0" d="M80.9,14.4l-0.4,1.2H80l1.3-3.9H82l1.3,3.9h-0.5l-0.4-1.2H80.9z M82.2,14l-0.4-1.1c-0.1-0.3-0.1-0.5-0.2-0.7
			h0c-0.1,0.2-0.1,0.5-0.2,0.7L81,14H82.2z"/>
		<path class="st0" d="M83.9,11.7c0.2,0,0.6-0.1,1-0.1c0.5,0,0.9,0.1,1.1,0.3c0.2,0.2,0.3,0.5,0.3,0.8c0,0.4-0.1,0.6-0.3,0.8
			c-0.3,0.3-0.7,0.4-1.2,0.4c-0.2,0-0.3,0-0.4,0v1.6h-0.5V11.7z M84.4,13.6c0.1,0,0.2,0,0.4,0c0.6,0,1-0.3,1-0.8
			c0-0.5-0.4-0.8-0.9-0.8c-0.2,0-0.4,0-0.5,0V13.6z"/>
		<path class="st0" d="M87,11.7c0.2,0,0.6-0.1,1-0.1c0.5,0,0.9,0.1,1.1,0.3c0.2,0.2,0.3,0.5,0.3,0.8c0,0.4-0.1,0.6-0.3,0.8
			c-0.3,0.3-0.7,0.4-1.2,0.4c-0.2,0-0.3,0-0.4,0v1.6H87V11.7z M87.5,13.6c0.1,0,0.2,0,0.4,0c0.6,0,1-0.3,1-0.8
			c0-0.5-0.4-0.8-0.9-0.8c-0.2,0-0.4,0-0.5,0V13.6z"/>
		<path class="st0" d="M94.6,13.6c0,1.3-0.8,2.1-1.8,2.1c-1,0-1.8-0.8-1.8-2c0-1.2,0.8-2.1,1.8-2.1C93.9,11.6,94.6,12.4,94.6,13.6z
			 M91.6,13.7c0,0.8,0.5,1.6,1.3,1.6c0.8,0,1.3-0.7,1.3-1.6c0-0.8-0.4-1.6-1.3-1.6C92,12,91.6,12.8,91.6,13.7z"/>
		<path class="st0" d="M95.3,15.6v-3.9h0.6l1.3,2c0.3,0.5,0.5,0.9,0.7,1.3l0,0c0-0.5-0.1-1-0.1-1.6v-1.6h0.5v3.9h-0.5l-1.2-2
			c-0.3-0.4-0.5-0.9-0.7-1.3l0,0c0,0.5,0,1,0,1.6v1.7H95.3z"/>
	</g>
	<path id="path46" inkscape:connector-curvature="0" class="st0" d="M80.2,25.3c-2.1,0-3.9,1.6-3.9,3.8c0,2.2,1.8,3.8,3.9,3.8
		c2.2,0,3.9-1.6,3.9-3.8C84.1,26.9,82.4,25.3,80.2,25.3z M80.2,31.4c-1.2,0-2.2-1-2.2-2.3c0-1.4,1-2.3,2.2-2.3
		c1.2,0,2.2,0.9,2.2,2.3C82.4,30.5,81.4,31.4,80.2,31.4z M71.7,25.3c-2.2,0-3.9,1.6-3.9,3.8c0,2.2,1.8,3.8,3.9,3.8
		c2.2,0,3.9-1.6,3.9-3.8C75.6,26.9,73.9,25.3,71.7,25.3z M71.7,31.4c-1.2,0-2.2-1-2.2-2.3c0-1.4,1-2.3,2.2-2.3
		c1.2,0,2.2,0.9,2.2,2.3C73.9,30.5,72.9,31.4,71.7,31.4z M61.6,26.4v1.6h3.9c-0.1,0.9-0.4,1.6-0.9,2.1c-0.6,0.6-1.5,1.2-3.1,1.2
		c-2.4,0-4.3-1.9-4.3-4.3c0-2.4,1.9-4.3,4.3-4.3c1.3,0,2.3,0.5,3,1.2l1.2-1.2c-1-0.9-2.3-1.6-4.1-1.6c-3.3,0-6.1,2.7-6.1,6
		s2.8,6,6.1,6c1.8,0,3.2-0.6,4.2-1.7c1.1-1.1,1.4-2.6,1.4-3.8c0-0.4,0-0.7-0.1-1L61.6,26.4z M103,27.7c-0.3-0.9-1.3-2.4-3.3-2.4
		c-2,0-3.7,1.6-3.7,3.8c0,2.2,1.6,3.8,3.9,3.8c1.8,0,2.8-1.1,3.2-1.7l-1.3-0.9c-0.4,0.6-1,1.1-1.9,1.1c-0.9,0-1.5-0.4-1.9-1.2
		l5.2-2.1L103,27.7z M97.7,29c0-1.5,1.2-2.2,2-2.2c0.7,0,1.3,0.3,1.4,0.8L97.7,29z M93.5,32.7h1.7V21.4h-1.7V32.7z M90.7,26.1
		L90.7,26.1c-0.4-0.4-1.2-0.9-2.1-0.9c-1.9,0-3.7,1.7-3.7,3.9c0,2.2,1.8,3.8,3.7,3.8c0.9,0,1.7-0.4,2-0.9h0.1v0.6
		c0,1.5-0.8,2.3-2.1,2.3c-1,0-1.7-0.7-2-1.4l-1.5,0.6c0.4,1,1.6,2.3,3.4,2.3c2,0,3.7-1.2,3.7-4v-6.9h-1.6L90.7,26.1z M88.7,31.4
		c-1.2,0-2.2-1-2.2-2.3c0-1.4,1-2.3,2.2-2.3c1.2,0,2.1,1,2.1,2.3C90.8,30.5,89.9,31.4,88.7,31.4z M111,21.4h-4.1v11.3h1.7v-4.3h2.4
		c1.9,0,3.8-1.4,3.8-3.5C114.8,22.8,112.9,21.4,111,21.4L111,21.4z M111.1,26.9h-2.4V23h2.4c1.3,0,2,1,2,1.9
		C113.1,25.8,112.3,26.9,111.1,26.9z M121.6,25.2c-1.2,0-2.5,0.5-3,1.7l1.5,0.6c0.3-0.6,0.9-0.8,1.6-0.8c0.9,0,1.8,0.5,1.8,1.5v0.1
		c-0.3-0.2-1-0.4-1.8-0.4c-1.6,0-3.3,0.9-3.3,2.5c0,1.5,1.3,2.5,2.8,2.5c1.1,0,1.8-0.5,2.2-1.1h0.1v0.9h1.6v-4.3
		C125.1,26.4,123.6,25.2,121.6,25.2L121.6,25.2z M121.4,31.4c-0.6,0-1.3-0.3-1.3-1c0-0.9,1-1.2,1.8-1.2c0.8,0,1.1,0.2,1.6,0.4
		C123.3,30.7,122.4,31.4,121.4,31.4L121.4,31.4z M131.1,25.5l-2,4.9h-0.1l-2-4.9h-1.8l3,6.8l-1.7,3.8h1.8l4.7-10.7L131.1,25.5z
		 M115.7,32.7h1.7V21.4h-1.7V32.7z"/>
	<path id="path20903" inkscape:connector-curvature="0" class="st0" d="M28.5,34.4L40,22.9L28.5,11.5C28.2,11.6,28,12,28,12.6v20.7
		C28,33.8,28.2,34.2,28.5,34.4z"/>
	<path id="path20905" inkscape:connector-curvature="0" class="st0" d="M40.4,22.6l3.4-3.4l-13.9-7.6c-0.2-0.1-0.5-0.2-0.8-0.2
		L40.4,22.6L40.4,22.6z"/>
	<path id="path20907" inkscape:connector-curvature="0" class="st0" d="M40.4,23.2L29.1,34.6c0.3,0,0.6-0.1,0.8-0.2l13.9-7.7
		L40.4,23.2z"/>
	<path id="path20909" inkscape:connector-curvature="0" class="st0" d="M48.9,22l-4.6-2.5l-3.5,3.5l3.5,3.5l4.6-2.5
		C49.8,23.4,49.8,22.5,48.9,22L48.9,22z"/>
	<g id="g150" transform="matrix(2.4498458,0,0,-2.4213425,5.7764772,321.44581)">
	</g>
</g>
</svg>
