<?xml version="1.0" encoding="utf-8"?>
<!-- Generator: Adobe Illustrator 19.2.1, SVG Export Plug-In . SVG Version: 6.00 Build 0)  -->
<svg version="1.1" id="Слой_1" xmlns="http://www.w3.org/2000/svg" xmlns:xlink="http://www.w3.org/1999/xlink" x="0px" y="0px"
	 viewBox="0 0 160 44" style="enable-background:new 0 0 160 44;" xml:space="preserve">
<style type="text/css">
</style>
<g>
	<g id="XMLID_228_">
		<path id="XMLID_229_" class="st0" d="M29.2,18.7c-2.1,3.7-0.8,9.2,1.6,12.6c1.2,1.7,2.4,3.2,4,3.2h0.1c0.8,0,1.3-0.3,1.8-0.5
			c0.6-0.3,1.2-0.5,2.2-0.5c0.9,0,1.5,0.3,2.1,0.5s1.1,0.5,2,0.5c1.8,0,2.9-1.7,3.9-3.1c1-1.5,1.5-3,1.7-3.5l0,0
			c0-0.1,0-0.2-0.1-0.3l0,0c-0.3-0.1-3.1-1.4-3.2-4.8c0-2.8,2.1-4.2,2.5-4.5l0,0l0.1-0.1c0-0.1,0-0.1,0-0.2
			c-1.5-2.2-3.7-2.5-4.7-2.5c-0.1,0-0.3,0-0.4,0c-1.1,0-2.1,0.4-2.9,0.7c-0.6,0.2-1.1,0.4-1.4,0.4c-0.4,0-0.9-0.2-1.4-0.4
			c-0.8-0.3-1.6-0.6-2.6-0.6c0,0,0,0-0.1,0C32.3,15.5,30.3,16.8,29.2,18.7z"/>
		<path id="XMLID_230_" class="st0" d="M43.2,9.5c-1.3,0.1-2.8,0.8-3.8,1.9c-0.8,0.9-1.6,2.4-1.4,4c0,0.1,0.1,0.2,0.2,0.2
			c0.1,0,0.2,0,0.3,0c1.3,0,2.6-0.7,3.6-1.8c1-1.2,1.5-2.7,1.3-4.1C43.4,9.6,43.4,9.5,43.2,9.5z"/>
	</g>
	<g>
		<path class="st0" d="M57.3,9.6c0.5-0.1,1.2-0.1,1.9-0.1c1.3,0,2.2,0.3,2.8,0.9c0.6,0.6,1,1.4,1,2.5s-0.4,2.1-1,2.7s-1.7,1-3.1,1
			c-0.6,0-1.2,0-1.6-0.1C57.3,16.5,57.3,9.6,57.3,9.6z M58.2,15.8c0.2,0,0.6,0.1,0.9,0.1c1.9,0,3-1.1,3-2.9c0-1.6-0.9-2.7-2.8-2.7
			c-0.5,0-0.8,0-1.1,0.1C58.2,10.4,58.2,15.8,58.2,15.8z"/>
		<path class="st0" d="M68.7,13.9c0,1.8-1.3,2.6-2.5,2.6c-1.3,0-2.4-1-2.4-2.6c0-1.7,1.1-2.6,2.5-2.6C67.7,11.4,68.7,12.4,68.7,13.9
			z M64.7,14c0,1.1,0.6,1.9,1.5,1.9s1.5-0.8,1.5-1.9c0-0.8-0.4-1.9-1.5-1.9S64.7,13,64.7,14z"/>
		<path class="st0" d="M70.1,11.5l0.7,2.5c0.1,0.6,0.3,1.1,0.4,1.6l0,0c0.1-0.5,0.3-1,0.4-1.6l0.8-2.5h0.8L74,14
			c0.2,0.6,0.3,1.1,0.4,1.6l0,0c0.1-0.5,0.2-1,0.4-1.6l0.7-2.5h0.9l-1.6,5H74l-0.8-2.4c-0.2-0.6-0.3-1.1-0.4-1.6l0,0
			c-0.1,0.6-0.3,1.1-0.5,1.6l-0.8,2.4h-0.8l-1.5-5H70.1z"/>
		<path class="st0" d="M77.3,12.8c0-0.5,0-0.9,0-1.3h0.8l0.1,0.8l0,0c0.2-0.5,0.8-0.9,1.6-0.9c0.7,0,1.8,0.4,1.8,2.1v3h-0.9v-2.9
			c0-0.8-0.3-1.5-1.2-1.5c-0.6,0-1.1,0.4-1.2,0.9c0,0.1-0.1,0.3-0.1,0.4v3h-0.9C77.3,16.4,77.3,12.8,77.3,12.8z"/>
		<path class="st0" d="M83,9.2h0.9v7.3H83V9.2z"/>
		<path class="st0" d="M90,13.9c0,1.8-1.3,2.6-2.5,2.6c-1.3,0-2.4-1-2.4-2.6c0-1.7,1.1-2.6,2.5-2.6C89,11.4,90,12.4,90,13.9z M86,14
			c0,1.1,0.6,1.9,1.5,1.9S89,15.1,89,14c0-0.8-0.4-1.9-1.5-1.9S86,13,86,14z"/>
		<path class="st0" d="M93.9,16.5l-0.1-0.6l0,0c-0.3,0.4-0.8,0.7-1.5,0.7c-1,0-1.5-0.7-1.5-1.4c0-1.2,1.1-1.9,3-1.9v-0.1
			c0-0.4-0.1-1.2-1.1-1.2c-0.5,0-0.9,0.1-1.3,0.4l-0.2-0.6c0.4-0.3,1-0.4,1.6-0.4c1.5,0,1.9,1,1.9,2v1.9c0,0.4,0,0.9,0.1,1.2H93.9z
			 M93.7,13.9c-1,0-2.1,0.2-2.1,1.1c0,0.6,0.4,0.9,0.9,0.9c0.6,0,1.1-0.4,1.2-0.8c0-0.1,0.1-0.2,0.1-0.3L93.7,13.9L93.7,13.9z"/>
		<path class="st0" d="M100.4,9.2v6c0,0.4,0,0.9,0,1.3h-0.8v-0.9l0,0c-0.3,0.6-0.9,1-1.7,1c-1.2,0-2.1-1-2.1-2.5
			c0-1.7,1-2.7,2.2-2.7c0.8,0,1.3,0.4,1.5,0.8l0,0v-3C99.5,9.2,100.4,9.2,100.4,9.2z M99.5,13.5c0-0.1,0-0.3,0-0.4
			c-0.1-0.6-0.6-1.1-1.3-1.1c-0.9,0-1.5,0.8-1.5,1.9c0,1,0.5,1.8,1.5,1.8c0.6,0,1.2-0.4,1.3-1.1c0-0.1,0-0.2,0-0.4V13.5z"/>
		<path class="st0" d="M108.6,13.9c0,1.8-1.3,2.6-2.5,2.6c-1.3,0-2.4-1-2.4-2.6c0-1.7,1.1-2.6,2.5-2.6
			C107.6,11.4,108.6,12.4,108.6,13.9z M104.6,14c0,1.1,0.6,1.9,1.5,1.9s1.5-0.8,1.5-1.9c0-0.8-0.4-1.9-1.5-1.9S104.6,13,104.6,14z"
			/>
		<path class="st0" d="M109.7,12.8c0-0.5,0-0.9,0-1.3h0.8l0.1,0.8l0,0c0.2-0.5,0.8-0.9,1.6-0.9c0.7,0,1.8,0.4,1.8,2.1v3h-0.9v-2.9
			c0-0.8-0.3-1.5-1.2-1.5c-0.6,0-1.1,0.4-1.2,0.9c0,0.1-0.1,0.3-0.1,0.4v3h-0.9C109.7,16.4,109.7,12.8,109.7,12.8z"/>
		<path class="st0" d="M118.7,10.1v1.4h1.3v0.7h-1.3v2.7c0,0.6,0.2,1,0.7,1c0.2,0,0.4,0,0.5-0.1v0.7c-0.2,0.1-0.5,0.1-0.8,0.1
			c-0.4,0-0.8-0.1-1-0.4c-0.3-0.3-0.4-0.7-0.4-1.3v-2.7h-0.8v-0.7h0.8v-1.2L118.7,10.1z"/>
		<path class="st0" d="M121,9.2h0.9v3.1l0,0c0.1-0.3,0.4-0.5,0.6-0.6c0.3-0.2,0.6-0.3,0.9-0.3c0.7,0,1.7,0.4,1.7,2.1v3h-0.9v-2.9
			c0-0.8-0.3-1.5-1.2-1.5c-0.6,0-1.1,0.4-1.2,0.9c-0.1,0.1-0.1,0.3-0.1,0.4v3H121V9.2z"/>
		<path class="st0" d="M127.3,14.1c0,1.2,0.8,1.7,1.7,1.7c0.6,0,1-0.1,1.4-0.3l0.2,0.6c-0.3,0.1-0.9,0.3-1.7,0.3
			c-1.5,0-2.5-1-2.5-2.5s0.9-2.7,2.3-2.7c1.6,0,2.1,1.4,2.1,2.3c0,0.2,0,0.3,0,0.4h-3.5V14.1z M129.9,13.5c0-0.6-0.2-1.5-1.3-1.5
			c-0.9,0-1.3,0.8-1.4,1.5H129.9z"/>
	</g>
	<g>
		<path class="st0" d="M60.1,30.6l-1.3,3.9h-1.6l4.2-12.3h1.9l4.2,12.3h-1.7l-1.3-3.9H60.1z M64.2,29.3L63,25.8
			c-0.3-0.8-0.5-1.5-0.6-2.3l0,0c-0.2,0.7-0.4,1.5-0.6,2.2l-1.2,3.6C60.6,29.3,64.2,29.3,64.2,29.3z"/>
		<path class="st0" d="M69.2,28.5c0-1.1,0-2-0.1-2.9h1.4l0.1,1.5l0,0c0.7-1.1,1.7-1.7,3.1-1.7c2.1,0,3.8,1.8,3.8,4.5
			c0,3.2-1.9,4.8-4,4.8c-1.2,0-2.2-0.5-2.7-1.4l0,0v4.8h-1.6C69.2,38.1,69.2,28.5,69.2,28.5z M70.8,30.9c0,0.2,0,0.5,0.1,0.7
			c0.3,1.1,1.3,1.9,2.4,1.9C75,33.4,76,32,76,30c0-1.8-0.9-3.3-2.6-3.3c-1.1,0-2.1,0.8-2.4,2c-0.1,0.2-0.1,0.4-0.1,0.7L70.8,30.9
			L70.8,30.9z"/>
		<path class="st0" d="M79.6,28.5c0-1.1,0-2-0.1-2.9H81l0.1,1.5l0,0c0.7-1.1,1.7-1.7,3.1-1.7c2.1,0,3.8,1.8,3.8,4.5
			c0,3.2-1.9,4.8-4,4.8c-1.2,0-2.2-0.5-2.7-1.4l0,0v4.8h-1.6v-9.6H79.6z M81.2,30.9c0,0.2,0,0.5,0.1,0.7c0.3,1.1,1.3,1.9,2.4,1.9
			c1.7,0,2.7-1.4,2.7-3.4c0-1.8-0.9-3.3-2.6-3.3c-1.1,0-2.1,0.8-2.4,2c-0.1,0.2-0.1,0.4-0.1,0.7L81.2,30.9L81.2,30.9z"/>
		<path class="st0" d="M93.8,32.5c0.7,0.4,1.8,0.8,2.9,0.8c1.6,0,2.6-0.9,2.6-2.1c0-1.2-0.7-1.8-2.3-2.5c-2-0.7-3.3-1.8-3.3-3.5
			c0-1.9,1.6-3.3,4-3.3c1.3,0,2.2,0.3,2.7,0.6l-0.4,1.3c-0.4-0.2-1.2-0.6-2.3-0.6c-1.7,0-2.3,1-2.3,1.8c0,1.2,0.8,1.7,2.5,2.4
			c2.1,0.8,3.1,1.8,3.1,3.6c0,1.9-1.4,3.5-4.3,3.5c-1.2,0-2.5-0.3-3.1-0.8L93.8,32.5z"/>
		<path class="st0" d="M104.8,23.1v2.5h2.3v1.2h-2.3v4.8c0,1.1,0.3,1.7,1.2,1.7c0.4,0,0.7-0.1,0.9-0.1l0.1,1.2
			c-0.3,0.1-0.8,0.2-1.4,0.2c-0.8,0-1.4-0.2-1.7-0.7c-0.5-0.5-0.6-1.3-0.6-2.3v-4.8h-1.4v-1.2h1.4v-2.1L104.8,23.1z"/>
		<path class="st0" d="M116.9,30c0,3.3-2.3,4.7-4.4,4.7c-2.4,0-4.2-1.8-4.2-4.6c0-3,1.9-4.7,4.4-4.7C115.1,25.4,116.9,27.3,116.9,30
			z M109.8,30.1c0,1.9,1.1,3.4,2.7,3.4c1.5,0,2.7-1.4,2.7-3.4c0-1.5-0.8-3.4-2.7-3.4S109.8,28.4,109.8,30.1z"/>
		<path class="st0" d="M118.9,28.4c0-1,0-1.9-0.1-2.8h1.4l0.1,1.7h0.1c0.4-1.2,1.4-1.9,2.5-1.9c0.2,0,0.3,0,0.5,0.1V27
			c-0.2,0-0.3-0.1-0.5-0.1c-1.1,0-1.9,0.9-2.2,2.1c0,0.2-0.1,0.5-0.1,0.8v4.7H119v-6.1H118.9z"/>
		<path class="st0" d="M125.6,30.3c0,2.2,1.4,3.1,3,3.1c1.2,0,1.8-0.2,2.5-0.5l0.3,1.2c-0.6,0.3-1.5,0.5-2.9,0.5
			c-2.7,0-4.4-1.8-4.4-4.5s1.6-4.8,4.2-4.8c2.9,0,3.7,2.5,3.7,4.2c0,0.3,0,0.6-0.1,0.8H125.6z M130.3,29.2c0-1-0.4-2.6-2.2-2.6
			c-1.6,0-2.3,1.5-2.5,2.6H130.3z"/>
	</g>
</g>
<g>
	<path class="st0" d="M137.9,44H22.1C9.9,44,0,34.1,0,22S9.9,0,22.1,0H138c12.1,0,22,9.9,22,22S150.1,44,137.9,44z M22.1,1
		C10.5,1,1,10.4,1,22s9.4,21,21.1,21H138c11.6,0,21.1-9.4,21.1-21S149.6,1,138,1H22.1z"/>
</g>
</svg>
