<svg xmlns="http://www.w3.org/2000/svg" viewBox="0 0 512 390"><title>Ресурс 1</title><g id="Слой_2" data-name="Слой 2"><g id="Слой_1-2" data-name="Слой 1"><path d="M256,0C160.49,0,71.68,55.51,4.36,123.21a15,15,0,0,0,21.28,21.15C68.11,101.65,154.51,30,256,30s187.89,71.65,230.36,114.36a15,15,0,0,0,21.28-21.15C440.28,55.48,351.49,0,256,0Z"/><path d="M76,311.38C126.46,354.68,189,390,256,390s129.56-35.33,180-78.62c44.51-38.22,72-76,73.18-77.59a15,15,0,0,0,0-17.58c-1.15-1.59-28.67-39.37-73.18-77.59C385.55,95.32,323,60,256,60S126.44,95.34,76,138.62c-44.51,38.22-72,76-73.18,77.59a15,15,0,0,0,0,17.58C4,235.38,31.51,273.16,76,311.38ZM256,90c63.67,0,122.12,38.58,159.93,70.95A495.21,495.21,0,0,1,478,225a497.1,497.1,0,0,1-65,66.47C371.67,326.27,316.1,360,256,360c-63.67,0-122.12-38.58-159.93-70.95A495.46,495.46,0,0,1,34,225a501.24,501.24,0,0,1,57-59.57C133,128.34,191.93,90,256,90Z"/><path d="M256,330A105,105,0,1,0,151,225,105.12,105.12,0,0,0,256,330Z"/></g></g></svg>