<?xml version="1.0" encoding="utf-8"?>
<!-- Generator: Adobe Illustrator 22.0.1, SVG Export Plug-In . SVG Version: 6.00 Build 0)  -->
<svg version="1.1" id="Capa_1" xmlns="http://www.w3.org/2000/svg" xmlns:xlink="http://www.w3.org/1999/xlink" x="0px" y="0px"
	 viewBox="0 0 512 512" style="enable-background:new 0 0 512 512;" xml:space="preserve">
<g>
	<g>
		<path d="M135.7,358.5c-1.9-1.9-4.4-2.9-7.1-2.9c-2.6,0-5.2,1.1-7.1,2.9c-1.9,1.9-2.9,4.4-2.9,7.1s1.1,5.2,2.9,7.1
			c1.9,1.9,4.4,2.9,7.1,2.9c2.6,0,5.2-1.1,7.1-2.9s2.9-4.4,2.9-7.1S137.6,360.4,135.7,358.5z"/>
	</g>
</g>
<g>
	<g>
		<path d="M226.4,358.5c-1.9-1.9-4.4-2.9-7.1-2.9c-2.6,0-5.2,1.1-7.1,2.9s-2.9,4.4-2.9,7.1s1.1,5.2,2.9,7.1c1.9,1.9,4.4,2.9,7.1,2.9
			c2.6,0,5.2-1.1,7.1-2.9c1.9-1.9,2.9-4.4,2.9-7.1S228.3,360.4,226.4,358.5z"/>
	</g>
</g>
<g>
	<g>
		<path d="M471.6,358.5c-1.9-1.9-4.4-2.9-7.1-2.9c-2.6,0-5.2,1.1-7.1,2.9s-2.9,4.4-2.9,7.1s1.1,5.2,2.9,7.1c1.9,1.9,4.4,2.9,7.1,2.9
			c2.6,0,5.2-1.1,7.1-2.9c1.9-1.9,2.9-4.4,2.9-7.1S473.5,360.4,471.6,358.5z"/>
	</g>
</g>
<g>
	<g>
		<path d="M436.1,96.3c-1.9-1.9-4.4-2.9-7.1-2.9c-2.6,0-5.2,1.1-7.1,2.9c-1.9,1.9-2.9,4.4-2.9,7.1c0,2.6,1.1,5.2,2.9,7.1
			s4.4,2.9,7.1,2.9c2.6,0,5.2-1.1,7.1-2.9c1.9-1.9,2.9-4.4,2.9-7.1C439.1,100.8,438,98.2,436.1,96.3z"/>
	</g>
</g>
<g>
	<g>
		<path d="M361.3,69.2c-3.9-3.9-10.2-3.9-14.1,0l-75.5,75.5c-3.9,3.9-3.9,10.2,0,14.1c2,2,4.5,2.9,7.1,2.9s5.1-1,7.1-2.9l75.5-75.5
			C365.2,79.4,365.2,73.1,361.3,69.2z"/>
	</g>
</g>
<g>
	<g>
		<path d="M150.7,114H138c0-0.2,0-0.3,0-0.5v-93C138,9.2,128.8,0,117.5,0h-27C79.2,0,70,9.2,70,20.5v9.8c-0.2,0-0.3,0-0.5,0h-27
			C31.2,30.3,22,39.5,22,50.8v62.7c0,0.2,0,0.3,0,0.5H10c-5.5,0-10,4.5-10,10c0,5.5,4.5,10,10,10h32.5h27h21h27h33.2
			c5.5,0,10-4.5,10-10S156.2,114,150.7,114z M70,113.5c0,0.3-0.2,0.5-0.5,0.5h-27c-0.3,0-0.5-0.2-0.5-0.5V50.8
			c0-0.3,0.2-0.5,0.5-0.5h27c0.3,0,0.5,0.2,0.5,0.5V113.5z M118,113.5c0,0.3-0.2,0.5-0.5,0.5h-27c-0.3,0-0.5-0.2-0.5-0.5V50.8V20.5
			c0-0.3,0.2-0.5,0.5-0.5h27c0.3,0,0.5,0.2,0.5,0.5V113.5z"/>
	</g>
</g>
<g>
	<g>
		<polygon points="85.3,160.9 85.3,160.9 85.4,160.9 		"/>
	</g>
</g>
<g>
	<g>
		<path d="M486,228c14.3,0,26-11.7,26-26V66c0-14.3-11.7-26-26-26H230c-14.3,0-26,11.7-26,26v136c0,14.3,11.7,26,26,26h95v17.7
			c0,15.1-12.3,27.3-27.3,27.3H120.1c6.4-8.4,10.2-18.9,10.2-30.3v-24c0-5.5-4.5-10-10-10H97.8c-0.1-1.2-0.2-2.5-0.4-3.9
			c7.1-1.1,15.6-3.9,22.1-10.5c12.1-12.4,11-31.9,10.7-34.9c-0.2-2.3-1.1-4.6-2.9-6.4c-1.7-1.7-4-2.7-6.3-2.9
			c-4.4-0.5-23.7-1.6-35.7,10.6c-3.4,3.5-5.8,7.6-7.4,11.7c-13.8-8.3-30.6-7.3-33.8-7.1c-2.3,0.2-4.6,1.1-6.4,2.9
			c-1.7,1.7-2.7,4-2.9,6.3c-0.4,4.3-1.5,20.7,6.3,34.1h-0.8c-5.5,0-10,4.5-10,10v24c0,11.4,3.8,21.9,10.2,30.3H10
			c-5.5,0-10,4.5-10,10v160c0,5.5,4.5,10,10,10h71.3l-12.6,46.3c-0.8,3-0.2,6.2,1.7,8.7s4.8,3.9,7.9,3.9h44c3.8,0,7.3-2.2,9-5.7
			l25.7-53.3h198l25.7,53.3c1.7,3.5,5.2,5.7,9,5.7h44c3.1,0,6.1-1.5,7.9-3.9c1.9-2.5,2.5-5.7,1.7-8.7l-12.6-46.3H502
			c5.5,0,10-4.5,10-10v-160c0-5.5-4.5-10-10-10h-83.7c-15.1,0-27.3-12.3-27.3-27.3V228H486z M99.6,174.9c2.5-2.5,6.3-3.8,10.1-4.4
			c-0.7,3.6-2,7.4-4.5,9.9c-2.4,2.5-6.2,3.8-9.9,4.5C95.9,181.3,97.2,177.4,99.6,174.9z M71,192.3c4.2,4.1,6,10.7,6.6,16.3
			c-5.7-0.6-12.4-2.2-16.6-6.3c-4.1-4-5.8-10.8-6.3-16.5C60.4,186.4,66.9,188.2,71,192.3z M50.3,228.8h30.1c0.7,0,1.3,0,1.9,0
			c0.7,0,1.3,0,1.9,0h26.1v14c0,16.5-13.5,30-30,30s-30-13.5-30-30V228.8z M116.1,492H91.4l10.6-38.9h32.7L116.1,492z M164,433.1H20
			v-140h144V433.1z M328,433.1H184v-140h144V433.1z M338,272.8c-0.6,0-1.1,0.1-1.6,0.1c5.4-7.7,8.6-17.1,8.6-27.2V228h26v17.7
			c0,10.2,3.2,19.6,8.7,27.3h-39.4C339.6,272.9,338.8,272.8,338,272.8z M395.9,492l-18.8-38.9h32.8l10.6,38.9H395.9z M492,293.1v140
			H348v-57.5h78.3c5.5,0,10-4.5,10-10s-4.5-10-10-10H348v-62.5H492z M338.6,208l69.8-69.8c3.9-3.9,3.9-10.2,0-14.1
			c-3.9-3.9-10.2-3.9-14.1,0l-83.3,83.3c-0.2,0.2-0.4,0.4-0.5,0.6H230c-3.3,0-6-2.7-6-6V66c0-3.3,2.7-6,6-6h256c3.3,0,6,2.7,6,6v136
			c0,3.3-2.7,6-6,6H338.6z"/>
	</g>
</g>
</svg>
