<?xml version="1.0" encoding="utf-8"?>
<!-- Generator: Adobe Illustrator 22.0.1, SVG Export Plug-In . SVG Version: 6.00 Build 0)  -->
<svg version="1.1" id="Capa_1" xmlns="http://www.w3.org/2000/svg" xmlns:xlink="http://www.w3.org/1999/xlink" x="0px" y="0px"
	 viewBox="0 0 512 512" style="enable-background:new 0 0 512 512;" xml:space="preserve">
<g>
	<g>
		<path d="M228,119c5.5,0,10-4.5,10-10V77c0-27.6-22.4-50-50-50H50C22.4,27,0,49.4,0,77v120c0,27.6,22.4,50,50,50h64.7
			c-2.3,74.7-30.6,113.5-86.5,118.6c-5.2,0.5-9.1,4.8-9.1,10V475c0,2.8,1.1,5.4,3.1,7.3c1.9,1.8,4.3,2.7,6.9,2.7c0.2,0,0.4,0,0.6,0
			c68.9-3.9,121.5-27.6,156.3-70.5c34.5-42.4,52-104.5,52-184.3v-35.8c0-5.5-4.5-10-10-10s-10,4.5-10,10v35.8
			c0,146.6-58.5,223.3-178.9,234.1v-79.8c30.4-4.7,53.9-18.9,70-42.2c17-24.7,25.7-60.1,25.7-105.3c0-5.5-4.5-10-10-10H50
			c-16.5,0-30-13.5-30-30V77c0-16.5,13.5-30,30-30h138c16.5,0,30,13.5,30,30v32C218,114.5,222.5,119,228,119z"/>
	</g>
</g>
<g>
	<g>
		<path d="M462,27H324c-27.6,0-50,22.4-50,50v120c0,27.6,22.4,50,50,50h64.7c-2.3,74.7-30.6,113.5-86.5,118.6
			c-5.1,0.5-9.1,4.8-9.1,10V475c0,2.8,1.1,5.4,3.1,7.3c1.9,1.8,4.3,2.7,6.9,2.7c0.2,0,0.4,0,0.6,0c68.9-3.9,121.5-27.6,156.3-70.5
			c34.5-42.4,52-104.5,52-184.3V77C512,49.4,489.6,27,462,27z M492,230.2c0,146.6-58.5,223.3-178.9,234.1v-79.8
			c30.4-4.7,53.9-18.9,70-42.2c17-24.7,25.7-60.1,25.7-105.3c0-5.5-4.5-10-10-10H324c-16.5,0-30-13.5-30-30V77c0-16.5,13.5-30,30-30
			h120v74c0,5.5,4.5,10,10,10s10-4.5,10-10v-74c15.6,1,28,14.1,28,29.9V230.2z"/>
	</g>
</g>
<g>
	<g>
		<path d="M454,145.8c-5.5,0-10,4.5-10,10s4.5,10,10,10c5.5,0,10-4.5,10-10v-0.1C464,150.2,459.5,145.8,454,145.8z"/>
	</g>
</g>
<g>
	<g>
		<path d="M228,141.7c-5.5,0-10,4.5-10,10v0.2c0,5.5,4.5,10,10,10s10-4.5,10-10v-0.2C238,146.1,233.5,141.7,228,141.7z"/>
	</g>
</g>
</svg>
