<svg xmlns="http://www.w3.org/2000/svg" viewBox="0 0 459.96 373.8"><defs><style>.cls-1{fill:#2ca7e0;}</style></defs><title>Ресурс 1</title><g id="Слой_2" data-name="Слой 2"><g id="形状_2" data-name="形状 2"><g id="形状_2-2" data-name="形状 2"><path class="cls-1" d="M460,44.25a188.45,188.45,0,0,1-54.2,14.86A94.59,94.59,0,0,0,447.25,6.9a189,189,0,0,1-59.92,22.9,94.45,94.45,0,0,0-160.8,86.07A267.9,267.9,0,0,1,32,17.27a94.49,94.49,0,0,0,29.21,126,94,94,0,0,1-42.75-11.81c0,.4,0,.79,0,1.19a94.43,94.43,0,0,0,75.7,92.53,94.23,94.23,0,0,1-42.61,1.62,94.43,94.43,0,0,0,88.15,65.53,189.3,189.3,0,0,1-117.2,40.4A192.19,192.19,0,0,1,0,331.4a267,267,0,0,0,144.65,42.4c173.58,0,268.5-143.79,268.5-268.5q0-6.14-.28-12.2A191.86,191.86,0,0,0,460,44.25Z"/></g></g></g></svg>