<svg xmlns="http://www.w3.org/2000/svg" xmlns:xlink="http://www.w3.org/1999/xlink"><defs><symbol viewBox="0 0 160 44" id="app_store_btn"><style></style><g id="app_store_btn_XMLID_228_"><path id="app_store_btn_XMLID_229_" class="st0" d="M29.2 18.7c-2.1 3.7-.8 9.2 1.6 12.6 1.2 1.7 2.4 3.2 4 3.2h.1c.8 0 1.3-.3 1.8-.5.6-.3 1.2-.5 2.2-.5.9 0 1.5.3 2.1.5s1.1.5 2 .5c1.8 0 2.9-1.7 3.9-3.1 1-1.5 1.5-3 1.7-3.5 0-.1 0-.2-.1-.3-.3-.1-3.1-1.4-3.2-4.8 0-2.8 2.1-4.2 2.5-4.5l.1-.1V18c-1.5-2.2-3.7-2.5-4.7-2.5h-.4c-1.1 0-2.1.4-2.9.7-.6.2-1.1.4-1.4.4-.4 0-.9-.2-1.4-.4-.8-.3-1.6-.6-2.6-.6h-.1c-2.1-.1-4.1 1.2-5.2 3.1z" /><path id="app_store_btn_XMLID_230_" class="st0" d="M43.2 9.5c-1.3.1-2.8.8-3.8 1.9-.8.9-1.6 2.4-1.4 4 0 .1.1.2.2.2h.3c1.3 0 2.6-.7 3.6-1.8 1-1.2 1.5-2.7 1.3-4.1 0-.1 0-.2-.2-.2z" /></g><path class="st0" d="M57.3 9.6c.5-.1 1.2-.1 1.9-.1 1.3 0 2.2.3 2.8.9.6.6 1 1.4 1 2.5s-.4 2.1-1 2.7-1.7 1-3.1 1c-.6 0-1.2 0-1.6-.1V9.6zm.9 6.2c.2 0 .6.1.9.1 1.9 0 3-1.1 3-2.9 0-1.6-.9-2.7-2.8-2.7-.5 0-.8 0-1.1.1v5.4zM68.7 13.9c0 1.8-1.3 2.6-2.5 2.6-1.3 0-2.4-1-2.4-2.6 0-1.7 1.1-2.6 2.5-2.6 1.4.1 2.4 1.1 2.4 2.6zm-4 .1c0 1.1.6 1.9 1.5 1.9s1.5-.8 1.5-1.9c0-.8-.4-1.9-1.5-1.9s-1.5.9-1.5 1.9zM70.1 11.5l.7 2.5c.1.6.3 1.1.4 1.6.1-.5.3-1 .4-1.6l.8-2.5h.8L74 14c.2.6.3 1.1.4 1.6.1-.5.2-1 .4-1.6l.7-2.5h.9l-1.6 5H74l-.8-2.4c-.2-.6-.3-1.1-.4-1.6-.1.6-.3 1.1-.5 1.6l-.8 2.4h-.8l-1.5-5h.9zM77.3 12.8v-1.3h.8l.1.8c.2-.5.8-.9 1.6-.9.7 0 1.8.4 1.8 2.1v3h-.9v-2.9c0-.8-.3-1.5-1.2-1.5-.6 0-1.1.4-1.2.9 0 .1-.1.3-.1.4v3h-.9v-3.6zM83 9.2h.9v7.3H83V9.2zM90 13.9c0 1.8-1.3 2.6-2.5 2.6-1.3 0-2.4-1-2.4-2.6 0-1.7 1.1-2.6 2.5-2.6 1.4.1 2.4 1.1 2.4 2.6zm-4 .1c0 1.1.6 1.9 1.5 1.9S89 15.1 89 14c0-.8-.4-1.9-1.5-1.9S86 13 86 14zM93.9 16.5l-.1-.6c-.3.4-.8.7-1.5.7-1 0-1.5-.7-1.5-1.4 0-1.2 1.1-1.9 3-1.9v-.1c0-.4-.1-1.2-1.1-1.2-.5 0-.9.1-1.3.4l-.2-.6c.4-.3 1-.4 1.6-.4 1.5 0 1.9 1 1.9 2v1.9c0 .4 0 .9.1 1.2h-.9zm-.2-2.6c-1 0-2.1.2-2.1 1.1 0 .6.4.9.9.9.6 0 1.1-.4 1.2-.8 0-.1.1-.2.1-.3l-.1-.9zM100.4 9.2v7.3h-.8v-.9c-.3.6-.9 1-1.7 1-1.2 0-2.1-1-2.1-2.5 0-1.7 1-2.7 2.2-2.7.8 0 1.3.4 1.5.8v-3h.9zm-.9 4.3v-.4c-.1-.6-.6-1.1-1.3-1.1-.9 0-1.5.8-1.5 1.9 0 1 .5 1.8 1.5 1.8.6 0 1.2-.4 1.3-1.1v-1.1zM108.6 13.9c0 1.8-1.3 2.6-2.5 2.6-1.3 0-2.4-1-2.4-2.6 0-1.7 1.1-2.6 2.5-2.6 1.4.1 2.4 1.1 2.4 2.6zm-4 .1c0 1.1.6 1.9 1.5 1.9s1.5-.8 1.5-1.9c0-.8-.4-1.9-1.5-1.9s-1.5.9-1.5 1.9zM109.7 12.8v-1.3h.8l.1.8c.2-.5.8-.9 1.6-.9.7 0 1.8.4 1.8 2.1v3h-.9v-2.9c0-.8-.3-1.5-1.2-1.5-.6 0-1.1.4-1.2.9 0 .1-.1.3-.1.4v3h-.9v-3.6zM118.7 10.1v1.4h1.3v.7h-1.3v2.7c0 .6.2 1 .7 1 .2 0 .4 0 .5-.1v.7c-.2.1-.5.1-.8.1-.4 0-.8-.1-1-.4-.3-.3-.4-.7-.4-1.3v-2.7h-.8v-.7h.8v-1.2l1-.2zM121 9.2h.9v3.1c.1-.3.4-.5.6-.6.3-.2.6-.3.9-.3.7 0 1.7.4 1.7 2.1v3h-.9v-2.9c0-.8-.3-1.5-1.2-1.5-.6 0-1.1.4-1.2.9-.1.1-.1.3-.1.4v3h-.7V9.2zM127.3 14.1c0 1.2.8 1.7 1.7 1.7.6 0 1-.1 1.4-.3l.2.6c-.3.1-.9.3-1.7.3-1.5 0-2.5-1-2.5-2.5s.9-2.7 2.3-2.7c1.6 0 2.1 1.4 2.1 2.3v.4h-3.5v.2zm2.6-.6c0-.6-.2-1.5-1.3-1.5-.9 0-1.3.8-1.4 1.5h2.7z" /><g><path class="st0" d="M60.1 30.6l-1.3 3.9h-1.6l4.2-12.3h1.9l4.2 12.3h-1.7l-1.3-3.9h-4.4zm4.1-1.3L63 25.8c-.3-.8-.5-1.5-.6-2.3-.2.7-.4 1.5-.6 2.2l-1.2 3.6h3.6zM69.2 28.5c0-1.1 0-2-.1-2.9h1.4l.1 1.5c.7-1.1 1.7-1.7 3.1-1.7 2.1 0 3.8 1.8 3.8 4.5 0 3.2-1.9 4.8-4 4.8-1.2 0-2.2-.5-2.7-1.4v4.8h-1.6v-9.6zm1.6 2.4c0 .2 0 .5.1.7.3 1.1 1.3 1.9 2.4 1.9C75 33.4 76 32 76 30c0-1.8-.9-3.3-2.6-3.3-1.1 0-2.1.8-2.4 2-.1.2-.1.4-.1.7l-.1 1.5zM79.6 28.5c0-1.1 0-2-.1-2.9H81l.1 1.5c.7-1.1 1.7-1.7 3.1-1.7 2.1 0 3.8 1.8 3.8 4.5 0 3.2-1.9 4.8-4 4.8-1.2 0-2.2-.5-2.7-1.4v4.8h-1.6v-9.6h-.1zm1.6 2.4c0 .2 0 .5.1.7.3 1.1 1.3 1.9 2.4 1.9 1.7 0 2.7-1.4 2.7-3.4 0-1.8-.9-3.3-2.6-3.3-1.1 0-2.1.8-2.4 2-.1.2-.1.4-.1.7l-.1 1.4zM93.8 32.5c.7.4 1.8.8 2.9.8 1.6 0 2.6-.9 2.6-2.1 0-1.2-.7-1.8-2.3-2.5-2-.7-3.3-1.8-3.3-3.5 0-1.9 1.6-3.3 4-3.3 1.3 0 2.2.3 2.7.6l-.4 1.3c-.4-.2-1.2-.6-2.3-.6-1.7 0-2.3 1-2.3 1.8 0 1.2.8 1.7 2.5 2.4 2.1.8 3.1 1.8 3.1 3.6 0 1.9-1.4 3.5-4.3 3.5-1.2 0-2.5-.3-3.1-.8l.2-1.2zM104.8 23.1v2.5h2.3v1.2h-2.3v4.8c0 1.1.3 1.7 1.2 1.7.4 0 .7-.1.9-.1l.1 1.2c-.3.1-.8.2-1.4.2-.8 0-1.4-.2-1.7-.7-.5-.5-.6-1.3-.6-2.3v-4.8h-1.4v-1.2h1.4v-2.1l1.5-.4zM116.9 30c0 3.3-2.3 4.7-4.4 4.7-2.4 0-4.2-1.8-4.2-4.6 0-3 1.9-4.7 4.4-4.7 2.4 0 4.2 1.9 4.2 4.6zm-7.1.1c0 1.9 1.1 3.4 2.7 3.4 1.5 0 2.7-1.4 2.7-3.4 0-1.5-.8-3.4-2.7-3.4s-2.7 1.7-2.7 3.4zM118.9 28.4c0-1 0-1.9-.1-2.8h1.4l.1 1.7h.1c.4-1.2 1.4-1.9 2.5-1.9.2 0 .3 0 .5.1V27c-.2 0-.3-.1-.5-.1-1.1 0-1.9.9-2.2 2.1 0 .2-.1.5-.1.8v4.7H119v-6.1h-.1zM125.6 30.3c0 2.2 1.4 3.1 3 3.1 1.2 0 1.8-.2 2.5-.5l.3 1.2c-.6.3-1.5.5-2.9.5-2.7 0-4.4-1.8-4.4-4.5s1.6-4.8 4.2-4.8c2.9 0 3.7 2.5 3.7 4.2 0 .3 0 .6-.1.8h-6.3zm4.7-1.1c0-1-.4-2.6-2.2-2.6-1.6 0-2.3 1.5-2.5 2.6h4.7z" /></g><g><path class="st0" d="M137.9 44H22.1C9.9 44 0 34.1 0 22S9.9 0 22.1 0H138c12.1 0 22 9.9 22 22s-9.9 22-22.1 22zM22.1 1C10.5 1 1 10.4 1 22s9.4 21 21.1 21H138c11.6 0 21.1-9.4 21.1-21S149.6 1 138 1H22.1z" /></g></symbol><symbol viewBox="0 0 512 512" id="attach_photo"><path d="M379.879 131.063c-28.418 0-51.537 23.12-51.537 51.537s23.119 51.537 51.537 51.537c28.417 0 51.537-23.119 51.537-51.537 0-28.419-23.119-51.537-51.537-51.537zm0 83.074c-17.39 0-31.537-14.147-31.537-31.537s14.147-31.537 31.537-31.537c17.389 0 31.537 14.147 31.537 31.537 0 17.388-14.147 31.537-31.537 31.537zM380.23 451.181a9.87 9.87 0 00-.92-1.73 9.57 9.57 0 00-1.24-1.52 9.57 9.57 0 00-1.52-1.24 9.87 9.87 0 00-1.73-.92c-.6-.25-1.23-.45-1.87-.57a9.847 9.847 0 00-3.9 0c-.64.12-1.27.32-1.87.57-.61.25-1.19.56-1.73.92-.55.36-1.06.78-1.52 1.24-.46.46-.88.97-1.24 1.52a9.87 9.87 0 00-.92 1.73c-.25.6-.45 1.23-.57 1.87-.13.64-.2 1.3-.2 1.95 0 .65.07 1.31.2 1.95.12.64.32 1.27.57 1.87.25.61.56 1.19.92 1.73.36.55.78 1.06 1.24 1.52a9.316 9.316 0 001.52 1.24c.54.36 1.12.67 1.73.92.6.25 1.23.45 1.87.57.64.13 1.3.2 1.95.2.65 0 1.31-.07 1.95-.2.64-.12 1.27-.32 1.87-.57a9.87 9.87 0 001.73-.92 9.535 9.535 0 001.52-1.24c.46-.46.88-.97 1.24-1.52.36-.54.67-1.12.92-1.73.25-.6.45-1.23.58-1.87.13-.64.19-1.3.19-1.95s-.06-1.31-.19-1.95a10.08 10.08 0 00-.58-1.87zM222.85 55.451c-.25-.6-.56-1.18-.92-1.73-.36-.54-.78-1.06-1.24-1.52a9.57 9.57 0 00-1.52-1.24 9.87 9.87 0 00-1.73-.92c-.6-.25-1.23-.44-1.87-.57a9.847 9.847 0 00-3.9 0c-.64.13-1.27.32-1.88.57-.6.25-1.18.56-1.72.92-.55.36-1.06.78-1.52 1.24-.46.46-.88.98-1.25 1.52-.36.55-.66 1.13-.91 1.73-.25.6-.45 1.23-.57 1.87-.13.65-.2 1.3-.2 1.96 0 .65.07 1.3.2 1.95.12.64.32 1.27.57 1.87.25.6.55 1.18.91 1.73.37.54.79 1.06 1.25 1.52.46.46.97.88 1.52 1.24.54.36 1.12.67 1.72.92.61.25 1.24.44 1.88.57.64.13 1.3.2 1.95.2a10.098 10.098 0 003.82-.77 9.87 9.87 0 001.73-.92 9.57 9.57 0 001.52-1.24c.46-.46.88-.98 1.24-1.52.36-.55.67-1.13.92-1.73.25-.6.45-1.23.57-1.87.13-.65.2-1.3.2-1.95 0-.66-.07-1.31-.2-1.96-.12-.64-.32-1.27-.57-1.87z" /><path d="M456.128 49.318c-5.996-25.349-28.8-44.274-55.956-44.274H86.417C38.767 5.043 0 43.81 0 91.46v313.755c0 31.161 24.917 56.595 55.872 57.468 5.996 25.349 28.8 44.274 55.956 44.274H454.49c31.711 0 57.51-25.799 57.51-57.51V106.785c0-31.16-24.917-56.594-55.872-57.467zM492 449.449c0 20.683-16.827 37.51-37.51 37.51H111.828c-16.01 0-29.702-10.085-35.075-24.233a37.303 37.303 0 01-2.435-13.277v-53.052l114.725-194.524c3.493-5.922 9.722-9.38 16.556-9.27 6.875.118 12.942 3.792 16.23 9.831l49.396 90.702 71.801 131.843a9.996 9.996 0 0013.565 3.999c4.85-2.642 6.641-8.715 4-13.565l-23.3-42.785a41.248 41.248 0 0028.305-9.488l44.971-37.306c7.212-5.983 17.861-5.72 24.769.613l2.348 2.152 20 18.333L492 378.389v71.06zm0-98.192l-34.317-31.458-20-15.229c-13.031-5.45-28.525-3.554-39.886 5.87l-44.971 37.306a21.343 21.343 0 01-17.716 4.549 21.346 21.346 0 01-14.769-10.79l-31.552-57.936-17.618-32.351v-.001l-31.777-58.35c-6.778-12.445-19.284-20.02-33.453-20.262-14.165-.222-26.926 6.901-34.125 19.107L74.317 357.027V106.785c0-20.683 16.827-37.51 37.51-37.51h61.792c5.523 0 10-4.477 10-10s-4.477-10-10-10h-61.792c-31.711 0-57.51 25.799-57.51 57.51v335.794C35.124 440.952 20 424.822 20 405.215V91.46c0-36.623 29.795-66.417 66.417-66.417h313.755c16.01 0 29.702 10.085 35.075 24.233H253.619c-5.523 0-10 4.477-10 10s4.477 10 10 10h184.063l20 .146C476.876 71.048 492 87.178 492 106.785v244.472z" /></symbol><symbol viewBox="0 0 459 459" id="bin"><path d="M76.5 408c0 28.05 22.95 51 51 51h204c28.05 0 51-22.95 51-51V102h-306v306zM408 25.5h-89.25L293.25 0h-127.5l-25.5 25.5H51v51h357v-51z" /></symbol><symbol viewBox="0 0 331.5 331.5" id="business"><path d="M298.8 57.1L197.6 2.3c-9.6-5.2-22.8-1.2-28 8.4l-59.2 110h-72c-9.2 0-16.4 7.2-16.4 16.4v178c0 9.2 7.2 16.4 16.4 16.4h230c9.2 0 16.4-7.2 16.4-16.4v-41.6h6.8c3.6 0 6.4-2.8 6.4-6.4v-47.6c0-3.6-2.8-6.4-6.4-6.4h-6.8v-46.8c0-7.6-5.6-14.4-12.8-16l35.2-65.2c5.2-10 1.6-22.4-8.4-28zm-72-24.4l-63.2 117.2h-18l67.6-124.4 13.6 7.2zm-45.6-16c2-3.6 6.8-5.2 10.4-3.2l10 5.6-70.4 130.8h-22l72-133.2zm-146.8 120c0-1.2 1.6-3.2 3.6-3.2h65.2l-8.8 16H38c-1.2 0-2.4 0-3.6.4v-13.2zm237.2 178.4c0 2-1.6 3.6-3.6 3.6H38c-2 0-3.6-1.6-3.6-3.6V166.3c0-2 1.6-3.6 3.6-3.6H267.6c2 0 3.6 1.6 3.6 3.6v46.8h-24.4c-10.8 0-19.2 8.8-19.2 19.2v22c0 10.8 8.8 19.2 19.2 19.2h24.8v41.6zm12.8-89.2h.4v34.8h-38c-3.6 0-6.4-2.8-6.4-6.4v-22c0-3.6 2.8-6.4 6.4-6.4h37.6zm11.2-147.2l-38.4 71.2H178l60-110.8 54.4 29.6c4 1.6 5.2 6.4 3.2 10z" /><path d="M271.2 72.7l-3.2-1.6c-8-4.4-18.8-1.2-23.2 6.8l-4 7.6c-2 4-2.8 8.8-1.2 13.2 1.2 4.4 4.4 8 8.4 10l3.2 1.6c2.4 1.2 5.2 2 8 2 6.4 0 12-3.6 15.2-8.8l4-7.6c4-8.4.8-18.8-7.2-23.2zm-4.4 17.2l-4 7.6c-1.2 2-4 2.8-6 1.6l-3.2-2c-.8-.4-1.6-1.6-2-2.4-.4-1.2-.4-2.4.4-3.2l4-7.6c.8-1.2 2.4-2.4 4-2.4.8 0 1.2 0 2 .4l3.2 1.6c1.6 1.6 2.4 4 1.6 6.4z" /></symbol><symbol viewBox="0 0 512 512" id="calendar"><path d="M452 40h-24V0h-40v40H124V0H84v40H60C26.916 40 0 66.916 0 100v352c0 33.084 26.916 60 60 60h392c33.084 0 60-26.916 60-60V100c0-33.084-26.916-60-60-60zm20 412c0 11.028-8.972 20-20 20H60c-11.028 0-20-8.972-20-20V188h432v264zm0-304H40v-48c0-11.028 8.972-20 20-20h24v40h40V80h264v40h40V80h24c11.028 0 20 8.972 20 20v48z" /><path d="M76 230h40v40H76zM156 230h40v40h-40zM236 230h40v40h-40zM316 230h40v40h-40zM396 230h40v40h-40zM76 310h40v40H76zM156 310h40v40h-40zM236 310h40v40h-40zM316 310h40v40h-40zM76 390h40v40H76zM156 390h40v40h-40zM236 390h40v40h-40zM316 390h40v40h-40zM396 310h40v40h-40z" /></symbol><symbol viewBox="0 0 512 512" id="call"><path d="M161.3 353c-1.9-1.9-4.4-2.9-7.1-2.9s-5.2 1.1-7.1 2.9c-1.9 1.9-2.9 4.4-2.9 7.1 0 2.6 1.1 5.2 2.9 7.1 1.9 1.9 4.4 2.9 7.1 2.9s5.2-1.1 7.1-2.9c1.9-1.9 2.9-4.4 2.9-7.1 0-2.7-1-5.2-2.9-7.1z" /><path d="M495.2 364.1l-72.3-72.3C412.1 281 397.8 275 382.5 275c-15.3 0-29.6 5.9-40.4 16.7L316.9 317l-10 10-122-122 35.3-35.3c22.3-22.3 22.3-58.5 0-80.8L148 16.7c-22.3-22.3-58.5-22.3-80.8 0L48.1 35.8c-64 64-64 168.2 0 232.3l70.3 70.3c3.9 3.9 10.2 3.9 14.1 0 3.9-3.9 3.9-10.2 0-14.1L62.2 254C10.5 202.2 6.3 120.5 49.8 64l75.9 75.9c2 2 4.5 2.9 7.1 2.9s5.1-1 7.1-2.9c3.9-3.9 3.9-10.2 0-14.1L63.1 49l18.1-18.1c14.5-14.5 38-14.5 52.5 0l72.2 72.2c14.5 14.5 14.5 38 0 52.5L163.6 198c-1.9 1.9-2.9 4.4-2.9 7.1s1.1 5.2 2.9 7.1l136.1 136.1c3.9 3.9 10.2 3.9 14.1 0l10.1-10.1 124 124c-25 19.3-55.6 29.8-87.9 29.8-38.5 0-74.8-15-102-42.2l-71.3-71.3c-3.9-3.9-10.2-3.9-14.1 0-3.9 3.9-3.9 10.2 0 14.1l71.3 71.3c31 31 72.3 48.1 116.1 48.1 43.9 0 85.1-17.1 116.1-48.1l19.1-19.1c10.8-10.8 16.7-25.1 16.7-40.4.1-15.2-5.9-29.6-16.7-40.3zm-14.1 66.6L463 448.8 338.1 324l18.1-18.1c7-7 16.3-10.9 26.3-10.9 9.9 0 19.2 3.9 26.3 10.9l72.3 72.3c7 7 10.9 16.3 10.9 26.3 0 9.9-3.9 19.2-10.9 26.2z" /><path d="M164.2 150.1c-1.9-1.9-4.4-2.9-7.1-2.9s-5.2 1.1-7.1 2.9c-1.9 1.9-2.9 4.4-2.9 7.1 0 2.6 1.1 5.2 2.9 7.1 1.9 1.9 4.4 2.9 7.1 2.9s5.2-1.1 7.1-2.9c1.9-1.9 2.9-4.4 2.9-7.1s-1-5.2-2.9-7.1zM421.5 72.2c-1.2-17.1-15-31-32.1-32.2-9.7-.7-19 2.6-26.1 9.2-7 6.5-11 15.8-11 25.3 0 5.5 4.5 10 10 10s10-4.5 10-10c0-4.1 1.7-7.9 4.7-10.7 3-2.8 6.9-4.2 11.1-3.9 7.2.5 13.1 6.3 13.6 13.6s-4.3 13.8-11.4 15.4c-7.8 1.7-13.2 8.5-13.2 16.5v18c0 5.5 4.5 10 10 10s10-4.5 10-10v-15.6c15.4-4.5 25.6-19.1 24.4-35.6zM394 152c-1.9-1.9-4.4-2.9-7.1-2.9s-5.2 1.1-7.1 2.9c-1.9 1.9-2.9 4.4-2.9 7.1 0 2.6 1.1 5.2 2.9 7.1s4.4 2.9 7.1 2.9 5.2-1.1 7.1-2.9c1.9-1.9 2.9-4.4 2.9-7.1.1-2.7-1-5.2-2.9-7.1z" /><path d="M462 0H312c-27.6 0-50 22.4-50 50v114c0 27.6 22.4 50 50 50h37.9l29.3 38.1c1.9 2.5 4.8 3.9 7.9 3.9 3.1 0 6-1.5 7.9-3.9l29-38.1h38c27.6 0 50-22.4 50-50V50c0-27.6-22.5-50-50-50zm30 164c0 16.5-13.5 30-30 30h-42.8c-3.1 0-6.1 1.5-8 3.9l-24.1 31.6-24.3-31.7c-1.9-2.5-4.8-3.9-7.9-3.9H312c-16.5 0-30-13.5-30-30V50c0-16.5 13.5-30 30-30h150c16.5 0 30 13.5 30 30v114z" /></symbol><symbol viewBox="0 0 465.2 465.2" id="clock"><path d="M279.591 423.714a192.461 192.461 0 01-11.629 2.52c-10.148 1.887-16.857 11.647-14.98 21.804a18.651 18.651 0 007.618 11.876 18.64 18.64 0 0014.175 3.099 233.175 233.175 0 0013.854-3.008c10.021-2.494 16.126-12.646 13.626-22.662-2.494-10.025-12.637-16.125-22.664-13.629zM417.887 173.047a18.644 18.644 0 006.97 9.398c4.684 3.299 10.813 4.409 16.662 2.475 9.806-3.256 15.119-13.83 11.875-23.631a232.327 232.327 0 00-4.865-13.314c-3.836-9.59-14.714-14.259-24.309-10.423-9.585 3.834-14.256 14.715-10.417 24.308a194.816 194.816 0 014.084 11.187zM340.36 397.013a195.86 195.86 0 01-10.134 6.261c-8.949 5.162-12.014 16.601-6.854 25.546a18.664 18.664 0 005.416 5.942c5.769 4.059 13.604 4.667 20.127.909a233.049 233.049 0 0012.062-7.452c8.614-5.691 10.985-17.294 5.291-25.912-5.693-8.621-17.291-10.989-25.908-5.294zM465.022 225.279c-.407-10.322-9.101-18.356-19.426-17.953-10.312.407-18.352 9.104-17.947 19.422.155 3.945.195 7.949.104 11.89-.145 6.473 3.021 12.243 7.941 15.711a18.647 18.647 0 0010.345 3.401c10.322.229 18.876-7.958 19.105-18.285.103-4.709.064-9.48-.122-14.186zM414.835 347.816c-8.277-6.21-19.987-4.524-26.186 3.738a195.193 195.193 0 01-7.434 9.298c-6.69 7.86-5.745 19.666 2.115 26.361.448.38.901.729 1.371 1.057 7.814 5.509 18.674 4.243 24.992-3.171a232.358 232.358 0 008.874-11.102c6.2-8.262 4.522-19.98-3.732-26.181zM442.325 280.213c-9.855-3.09-20.35 2.396-23.438 12.251a198.06 198.06 0 01-3.906 11.253c-3.105 8.156-.13 17.13 6.69 21.939a18.635 18.635 0 004.126 2.19c9.649 3.682 20.454-1.159 24.132-10.812a240.351 240.351 0 004.646-13.382c3.085-9.857-2.397-20.349-12.25-23.439zM197.999 426.402a193.1 193.1 0 01-47.968-15.244c-.18-.094-.341-.201-.53-.287a204.256 204.256 0 01-10.63-5.382c-.012-.014-.034-.023-.053-.031a199.491 199.491 0 01-18.606-11.628C32.24 331.86 11.088 209.872 73.062 121.901c13.476-19.122 29.784-35.075 47.965-47.719.224-.156.448-.311.67-.468 64.067-44.144 151.06-47.119 219.089-1.757l-14.611 21.111c-4.062 5.876-1.563 10.158 5.548 9.518l63.467-5.682c7.12-.64 11.378-6.799 9.463-13.675L387.61 21.823c-1.908-6.884-6.793-7.708-10.859-1.833l-14.645 21.161C312.182 7.638 252.303-5.141 192.87 5.165a235.263 235.263 0 00-17.709 3.78c-.045.008-.081.013-.117.021-.225.055-.453.128-.672.189-51.25 13.161-95.965 43.052-127.872 85.7-.269.319-.546.631-.8.978a220.276 220.276 0 00-3.145 4.353 229.217 229.217 0 00-4.938 7.308c-.199.296-.351.597-.525.896C10.762 149.191-1.938 196.361.24 244.383c.005.158-.004.317 0 .479a227.87 227.87 0 001.088 14.129c.027.302.094.588.145.89a230.909 230.909 0 001.998 14.145c8.344 48.138 31.052 91.455 65.079 125.16.079.079.161.165.241.247.028.031.059.047.086.076a235.637 235.637 0 0029.793 24.898c28.02 19.744 59.221 32.795 92.729 38.808 10.167 1.827 19.879-4.941 21.703-15.103 1.823-10.169-4.939-19.889-15.103-21.71z" /><path d="M221.124 83.198c-8.363 0-15.137 6.78-15.137 15.131v150.747l137.87 71.271a15.042 15.042 0 006.933 1.69c5.476 0 10.765-2.982 13.454-8.185 3.835-7.426.933-16.549-6.493-20.384L236.244 230.65V98.329c-.001-8.351-6.767-15.131-15.12-15.131z" /></symbol><symbol viewBox="0 0 47.971 47.971" id="close"><path d="M28.228 23.986L47.092 5.122a2.998 2.998 0 000-4.242 2.998 2.998 0 00-4.242 0L23.986 19.744 5.121.88a2.998 2.998 0 00-4.242 0 2.998 2.998 0 000 4.242l18.865 18.864L.879 42.85a2.998 2.998 0 104.242 4.241l18.865-18.864L42.85 47.091c.586.586 1.354.879 2.121.879s1.535-.293 2.121-.879a2.998 2.998 0 000-4.242L28.228 23.986z" /></symbol><symbol viewBox="0 0 496 496" id="craft"><path d="M373.6 274.7l-13.7-36.5c-1.1-13.9-14.3-25.2-34.9-33.8l16.9-36.6c.7.1 1.4.2 2.2.2 13.2 0 24-10.8 24-24s-10.8-24-24-24-24 10.8-24 24c0 6.7 2.8 12.8 7.3 17.2L309.8 199c-10.4-3.2-22-6-34.4-8.2l38.5-143c12.4-1 22.1-11.2 22.1-23.8 0-13.2-10.8-24-24-24s-24 10.8-24 24c0 8.2 4.1 15.4 10.4 19.7l-38.9 144.6c-10.7-1.4-21.9-2.5-33.3-3.3l5.5-98.5c9.4-3.1 16.3-12 16.3-22.5 0-13.2-10.8-24-24-24s-24 10.8-24 24c0 10.3 6.5 19 15.6 22.4l-5.4 97.9c-6-.2-12.1-.3-18.2-.3-6.7 0-13.3.1-20 .4l-3.7-66C177.5 115 184 106.3 184 96c0-13.2-10.8-24-24-24s-24 10.8-24 24c0 10.5 6.9 19.4 16.4 22.6l3.7 66.6c-10.8.7-21.3 1.8-31.5 3.1l-39-144.6C91.9 39.4 96 32.2 96 24 96 10.8 85.2 0 72 0S48 10.8 48 24c0 12.6 9.8 22.8 22.1 23.8l38.5 143c-12.4 2.2-24 4.9-34.4 8.2l-17.5-37.8c4.5-4.4 7.3-10.4 7.3-17.2 0-13.2-10.8-24-24-24s-24 10.8-24 24 10.8 24 24 24c.7 0 1.4-.2 2.2-.2l16.9 36.6c-20.7 8.6-33.9 19.9-34.9 33.8l-13.7 36.5C3.5 293.2 0 312.5 0 332.2 0 422.5 73.5 496 163.8 496h56.5c90.3 0 163.8-73.5 163.8-163.8-.1-19.7-3.6-39-10.5-57.5zM344 136c4.4 0 8 3.6 8 8s-3.6 8-8 8-8-3.6-8-8 3.6-8 8-8zM312 16c4.4 0 8 3.6 8 8s-3.6 8-8 8-8-3.6-8-8 3.6-8 8-8zm-88 40c4.4 0 8 3.6 8 8s-3.6 8-8 8-8-3.6-8-8 3.6-8 8-8zm-64 32c4.4 0 8 3.6 8 8s-3.6 8-8 8-8-3.6-8-8 3.6-8 8-8zM64 24c0-4.4 3.6-8 8-8s8 3.6 8 8-3.6 8-8 8-8-3.6-8-8zM32 144c0-4.4 3.6-8 8-8s8 3.6 8 8-3.6 8-8 8-8-3.6-8-8zm33.8 75l14.9 32.4 14.5-6.7-14.3-31c9.2-2.8 19.9-5.3 31.8-7.3l7.5 27.8 15.5-4.2-7-26c8.8-1.2 18.3-2.1 28.2-2.7l3.1 55.3 16-.9-3.1-55.2c6.2-.2 12.5-.4 19.1-.4 5.9 0 11.7.1 17.3.3l-1.3 23.3 16 .9 1.3-23.4c10.6.7 20.6 1.6 30 2.9l-7 26 15.5 4.2 7.5-27.8c12 2.1 22.6 4.6 31.8 7.3l-14.3 31 14.5 6.7 14.9-32.4c16.7 6.8 25.8 14.4 25.8 21 0 16.7-57.8 40-152 40S40 256.7 40 240c0-6.6 9.1-14.2 25.8-21zm154.4 261h-56.5C82.3 480 16 413.7 16 332.2c0-17.8 3.2-35.2 9.4-51.9l7.8-20.7c7.2 7.2 18.2 13.3 32 18.4-6 9.7-9.2 20.9-9.2 32.6v9.4h16v-9.4c0-10.1 3.2-19.6 9.1-27.6 12.6 3.5 26.7 6.3 41.7 8.4-7 10.3-10.8 22.5-10.8 35.2v9.4h16v-9.4c0-12.5 4.8-24.2 13.7-33 13.8 1.3 28.1 2.1 42.4 2.3V352h16v-56.1c14.3-.2 28.6-1 42.4-2.3 8.8 8.8 13.7 20.5 13.7 33v9.4h16v-9.4c0-12.8-3.8-24.9-10.8-35.2 15-2.1 29.1-4.9 41.7-8.4 5.9 8 9.1 17.5 9.1 27.6v9.4h16v-9.4c0-11.7-3.3-22.9-9.2-32.6 13.8-5.1 24.9-11.2 32-18.4l7.8 20.7c6.2 16.6 9.4 34.1 9.4 51.9-.2 81.5-66.5 147.8-148 147.8z" /></symbol><symbol viewBox="0 0 297 297" id="cup"><path d="M64.282 108.145c-5.621 1.053-10.209 4.572-10.209 10.209 0 5.639 4.571 10.208 10.209 10.208 2.789 0 5.476-.434 8.009-1.224-2.374-6.245-4.19-12.849-5.454-19.705 0 0-1.914.392-2.555.512zM181.383 199.42c-2.88-7.53-3.92-13.906-3.92-13.906-.633-3.878-4.242-6.171-8.021-5.093 0 0-11.238 3.202-20.94 3.202-9.697 0-20.924-3.198-20.924-3.198-3.78-1.076-7.391 1.217-8.022 5.095 0 0-.983 6.029-3.772 13.468-1.858 4.955-2.894 6.663-2.894 6.663-2.039 3.36-.491 6.109 3.439 6.109h64.345c3.931 0 5.474-2.745 3.429-6.103-.001 0-.896-1.468-2.72-6.237zM208.815 0H88.187c-5.047 0-9.141 4.098-9.141 9.153v75.513c0 23.637 7.02 45.152 19.765 60.582 12.829 15.53 30.478 24.084 49.691 24.084 19.214 0 36.862-8.554 49.69-24.084 12.745-15.43 19.765-36.945 19.765-60.582V9.153C217.956 4.098 213.862 0 208.815 0zM64.755 74.457H47.438c-12.947 0-23.48-10.531-23.48-23.479 0-12.946 10.533-23.479 23.48-23.479 6.849 0 13.021 2.948 17.316 7.642V10.648a43.633 43.633 0 00-17.316-3.566c-24.205 0-43.897 19.693-43.897 43.896 0 24.205 19.692 43.896 43.897 43.896h17.724a128.378 128.378 0 01-.407-10.208V74.457zM231.84 94.874h17.724c24.204 0 43.896-19.69 43.896-43.896 0-24.203-19.691-43.896-43.896-43.896-6.146 0-12 1.274-17.315 3.566V35.14c4.295-4.693 10.467-7.642 17.315-7.642 12.946 0 23.479 10.533 23.479 23.479 0 12.947-10.532 23.479-23.479 23.479h-17.315v10.209a129.332 129.332 0 01-.409 10.209zM64.282 226.052c-5.638 0-10.209 4.571-10.209 10.208v50.532c0 5.638 4.571 10.208 10.209 10.208H232.72c5.638 0 10.209-4.57 10.209-10.208V236.26c0-5.637-4.571-10.208-10.209-10.208H64.282zM230.165 107.633c-1.264 6.857-3.08 13.46-5.454 19.705a26.878 26.878 0 008.009 1.224c5.638 0 10.209-4.569 10.209-10.208 0-5.637-4.233-9.09-10.209-10.209-.703-.131-2.555-.512-2.555-.512z" /></symbol><symbol viewBox="-45 0 512 512.002" id="discount"><path d="M316.965 473.484c-5.004 14.82-15.535 26.207-28.512 32.633-12.46 6.172-27.183 7.77-41.445 3.45L38.52 439.198c-14.82-5.004-26.208-15.535-32.637-28.512-6.418-12.964-7.89-28.375-2.895-43.164l82.383-243.992c4.05-11.996 11.797-22.094 22.352-29.078l99.07-82.52c6.39-5.593 17.062-9.788 25.394-11.171a56.483 56.483 0 0127.286 2.199l74.48 24.988c9.93 3.356 18.317 9.188 24.7 16.57a56.833 56.833 0 0112.804 26.465l28.766 125.711a56 56 0 011.922 16.422 56.399 56.399 0 01-2.938 16.363l-13.117 38.883c8.539 2.883 17.683 5.453 27.523 7.645 5.395 1.191 8.801 6.527 7.606 11.922-1.188 5.394-6.528 8.804-11.922 7.613-10.555-2.352-20.395-5.11-29.602-8.203zM152.387 349.66c0-4.578-2.461-8.031-6.793-9.496l-52.067-17.523c-5.242-1.754-10.914 1.074-12.672 6.316-1.753 5.238 1.075 10.914 6.317 12.668l51.773 17.426a9.966 9.966 0 003.442.61c5.523 0 10-5.04 10-10zm67.656 15.563c-6.207-1.817-12.824 3.23-12.824 9.625 0 4.472 2.254 7.746 6.422 9.343.222.075.437.157.664.227l51.386 17.293c5.243 1.754 10.918-1.07 12.672-6.313 1.754-5.242-1.074-10.918-6.316-12.671zm-40.473-12.856c-5.52 0-10 4.477-10 10 0 5.524 4.48 10 10 10 5.524 0 10-4.476 10-10 0-5.523-4.476-10-10-10zm70.2-227.62c.109-5.524 4.675-9.915 10.199-9.806 5.523.106 9.914 4.672 9.804 10.196 0 .113-.418 12.523 4.036 30.367.304-.14.601-.281.898-.43 7.711-3.816 13.961-10.57 16.926-19.347 2.976-8.809 2.097-17.997-1.727-25.723-3.82-7.711-10.57-13.961-19.347-16.926-8.813-2.976-17.997-2.098-25.723 1.73-7.711 3.817-13.961 10.567-16.926 19.348-2.976 8.813-2.098 17.996 1.727 25.723 3.82 7.71 10.57 13.96 19.347 16.926 1.645.554 3.301.972 4.957 1.265-4.62-19.629-4.175-33.203-4.171-33.324zm30.214 49.91c11.489 28.847 35.848 63.874 87.414 86.491l12.825-38.101a36.131 36.131 0 001.918-10.48c.101-3.465-.309-7.063-1.293-10.692L351.926 75.457c-1.215-6.7-3.95-12.668-8.414-17.832a36.338 36.338 0 00-15.914-10.691L253.12 21.945a36.718 36.718 0 00-17.719-1.418c-1.476.246-12.707 4.461-16.144 7.047l-100.192 83.38a36.565 36.565 0 00-14.71 18.933L21.968 373.879c-3.23 9.57-2.274 19.55 1.879 27.941 4.148 8.38 11.484 15.172 21.023 18.395l206.774 69.816c9.57 3.23 19.55 2.278 27.945-1.879 8.37-4.148 15.164-11.476 18.387-21.011l62.988-186.914c-60.688-25.961-88.281-67.848-100.817-101.61-20.398.14-39.32-11.387-48.476-29.875-13.149-26.554-2.25-58.754 24.297-71.898 26.554-13.149 58.754-2.25 71.898 24.297 6.09 12.297 7.485 26.914 2.75 40.941-4.746 14.063-14.734 24.863-27.047 30.957a52.861 52.861 0 01-3.586 1.617zm-156.222 58.597l178.523 60.086c5.242 1.754 10.914-1.074 12.668-6.317 1.754-5.242-1.07-10.914-6.316-12.668l-178.52-60.085c-5.242-1.754-10.914 1.07-12.668 6.312-1.754 5.242 1.07 10.918 6.313 12.672zm-18.297 54.184l178.523 60.085c5.242 1.758 10.914-1.07 12.668-6.312 1.754-5.242-1.074-10.914-6.316-12.668l-178.52-60.086c-5.242-1.758-10.914 1.07-12.668 6.313-1.754 5.242 1.07 10.914 6.313 12.668zm0 0" fill-rule="evenodd" /></symbol><symbol viewBox="0 0 129 129" id="down-arrow"><path d="M121.3 34.6c-1.6-1.6-4.2-1.6-5.8 0l-51 51.1-51.1-51.1c-1.6-1.6-4.2-1.6-5.8 0-1.6 1.6-1.6 4.2 0 5.8l53.9 53.9c.8.8 1.8 1.2 2.9 1.2 1 0 2.1-.4 2.9-1.2l53.9-53.9c1.7-1.6 1.7-4.2.1-5.8z" /></symbol><symbol viewBox="0 0 512 512" id="events"><path d="M497.3 190.4c0-10.7 4.2-20.8 11.7-28.3 3.9-3.9 3.9-10.2 0-14.1l-37-37.2c-1.9-1.9-4.4-2.9-7.1-2.9s-5.2 1.1-7.1 2.9c-7.6 7.6-17.6 11.7-28.3 11.7s-20.8-4.2-28.3-11.7c-15.6-15.6-15.6-41 0-56.6 3.9-3.9 3.9-10.2 0-14.1L364.1 2.9C360.2-1 353.9-1 350 2.9c-7.6 7.6-17.6 11.7-28.3 11.7s-20.8-4.2-28.3-11.7c-4-3.9-10.4-3.9-14.3 0L2.9 279.1C1.1 281 0 283.5 0 286.2s1.1 5.2 2.9 7.1c7.6 7.6 11.7 17.6 11.7 28.3s-4.2 20.8-11.7 28.3c-3.9 3.9-3.9 10.2 0 14.1L40 401.2c3.9 3.9 10.2 3.9 14.1 0 7.6-7.6 17.6-11.7 28.3-11.7s20.8 4.2 28.3 11.7c7.6 7.6 11.7 17.6 11.7 28.3s-4.2 20.8-11.7 28.3c-1.9 1.9-2.9 4.4-2.9 7.1s1.1 5.2 2.9 7.1l37.1 37.1c2 2 4.5 2.9 7.1 2.9 2.6 0 5.1-1 7.1-2.9 7.6-7.6 17.6-11.7 28.3-11.7s20.8 4.2 28.3 11.7c3.9 3.9 10.2 3.9 14.1 0l276.2-276.2c1.9-1.9 2.9-4.4 2.9-7.1s-1.1-5.2-2.9-7.1c-7.4-7.5-11.6-17.6-11.6-28.3zm-272.1 298c-10.1-7.2-22.2-11.1-34.8-11.1s-24.7 3.9-34.8 11.1l-24.1-24.1c7.2-10.1 11.1-22.2 11.1-34.8 0-16-6.2-31.1-17.6-42.5-11.3-11.3-26.4-17.6-42.5-17.6-12.7 0-24.7 3.9-34.8 11.1l-24.1-24.1c7.2-10.1 11.1-22.2 11.1-34.8s-3.9-24.7-11.1-34.8L286.8 23.6c10.1 7.2 22.2 11.1 34.8 11.1 12.7 0 24.7-3.9 34.8-11.1l24.1 24.1C363.9 71.1 366 104 387 125c11.3 11.3 26.4 17.6 42.5 17.6 12.7 0 24.7-3.9 34.8-11.1l24.1 24.1c-7.2 10.1-11.1 22.2-11.1 34.8 0 12.7 3.9 24.7 11.1 34.8L225.2 488.4z" /><path d="M459.7 218.7L293.3 52.3c-3.9-3.9-10.2-3.9-14.1 0L52.3 279.1c-1.9 1.9-2.9 4.4-2.9 7.1s1.1 5.2 2.9 7.1l166.4 166.4c2 2 4.5 2.9 7.1 2.9s5.1-1 7.1-2.9l226.8-226.8c1.9-1.9 2.9-4.4 2.9-7.1 0-2.6-1-5.2-2.9-7.1zM225.8 438.5L73.5 286.2 286.2 73.5l152.3 152.3-212.7 212.7z" /><path d="M266.7 302.7l-20.1-15.4-.7-25.4c-.1-3.7-2.2-7-5.5-8.7-3.3-1.7-7.2-1.4-10.2.7l-20.9 14.4-24.3-7.2c-3.5-1-7.3-.1-9.9 2.5-2.6 2.6-3.6 6.4-2.5 9.9l7.2 24.3-14.4 20.9c-2.1 3-2.3 6.9-.7 10.2s5 5.4 8.7 5.5l25.4.7 15.4 20.1c1.9 2.5 4.9 3.9 7.9 3.9.5 0 1 0 1.6-.1 3.6-.6 6.6-3.1 7.9-6.5l8.5-23.9 23.9-8.5c3.5-1.2 6-4.2 6.5-7.9.5-3.6-.9-7.3-3.8-9.5zm-37.9 8.6c-2.8 1-5.1 3.2-6.1 6.1l-3.9 11-7.1-9.3c-1.8-2.4-4.7-3.8-7.7-3.9l-11.7-.3 6.6-9.7c1.7-2.5 2.2-5.6 1.3-8.5l-3.3-11.2 11.2 3.3c2.9.9 6 .4 8.5-1.3l9.7-6.6.3 11.7c.1 3 1.5 5.8 3.9 7.7l9.3 7.1-11 3.9zM338.5 173.5c-3.9-3.9-10.2-3.9-14.1 0L274.8 223c-3.9 3.9-3.9 10.2 0 14.1 2 2 4.5 2.9 7.1 2.9 2.6 0 5.1-1 7.1-2.9l49.5-49.5c3.9-3.8 3.9-10.2 0-14.1zM287.8 163.8c-3.9-3.9-10.2-3.9-14.1 0l-29 29c-3.9 3.9-3.9 10.2 0 14.1 2 2 4.5 2.9 7.1 2.9s5.1-1 7.1-2.9l29-29c3.8-3.9 3.8-10.2-.1-14.1zM308.3 143.3c-3.9-3.9-10.2-3.9-14.1 0l-.2.2c-3.9 3.9-3.9 10.2 0 14.1 2 2 4.5 2.9 7.1 2.9 2.5 0 5.1-1 7-2.9l.2-.2c3.8-3.8 3.9-10.2 0-14.1zM319.4 253.1c-3.9-3.9-10.2-3.9-14.1 0l-.2.2c-3.9 3.9-3.9 10.2 0 14.1 2 2 4.5 2.9 7.1 2.9 2.6 0 5.1-1 7.1-2.9l.2-.2c3.8-3.9 3.8-10.2-.1-14.1zM368.7 203.8c-3.9-3.9-10.2-3.9-14.1 0l-29 29c-3.9 3.9-3.9 10.2 0 14.1 2 2 4.5 2.9 7.1 2.9 2.6 0 5.1-1 7.1-2.9l29-29c3.8-3.9 3.8-10.2-.1-14.1z" /></symbol><symbol viewBox="0 0 512 390" id="eye"><g data-name="Слой 2"><g data-name="Слой 1"><path d="M256 0C160.49 0 71.68 55.51 4.36 123.21a15 15 0 0021.28 21.15C68.11 101.65 154.51 30 256 30s187.89 71.65 230.36 114.36a15 15 0 0021.28-21.15C440.28 55.48 351.49 0 256 0z" /><path d="M76 311.38C126.46 354.68 189 390 256 390s129.56-35.33 180-78.62c44.51-38.22 72-76 73.18-77.59a15 15 0 000-17.58c-1.15-1.59-28.67-39.37-73.18-77.59C385.55 95.32 323 60 256 60S126.44 95.34 76 138.62c-44.51 38.22-72 76-73.18 77.59a15 15 0 000 17.58C4 235.38 31.51 273.16 76 311.38zM256 90c63.67 0 122.12 38.58 159.93 70.95A495.21 495.21 0 01478 225a497.1 497.1 0 01-65 66.47C371.67 326.27 316.1 360 256 360c-63.67 0-122.12-38.58-159.93-70.95A495.46 495.46 0 0134 225a501.24 501.24 0 0157-59.57C133 128.34 191.93 90 256 90z" /><path d="M256 330a105 105 0 10-105-105 105.12 105.12 0 00105 105z" /></g></g></symbol><symbol viewBox="0 0 160 44" id="google_play_btn"><style></style><path class="st0" d="M137.9 44H22.1C9.9 44 0 34.1 0 22S9.9 0 22.1 0H138c12.1 0 22 9.9 22 22s-9.9 22-22.1 22zM22.1 1C10.5 1 1 10.4 1 22s9.5 21 21.1 21H138c11.6 0 21.1-9.4 21.1-21S149.6 1 138 1H22.1z" /><path class="st0" d="M56.1 14.4l-.4 1.2h-.5l1.3-3.9h.6l1.3 3.9h-.5l-.4-1.2h-1.4zm1.3-.4l-.4-1.1c-.1-.3-.1-.5-.2-.7-.1.2-.1.5-.2.7l-.4 1.1h1.2zM59 15.6v-3.9h.6l1.3 2c.3.5.5.9.7 1.3 0-.5-.1-1-.1-1.6v-1.6h.5v3.9h-.5l-1.2-2c-.3-.4-.5-.9-.7-1.3v3.3H59zM62.8 11.7c.3 0 .7-.1 1.1-.1.7 0 1.2.2 1.6.5.3.3.6.8.6 1.4 0 .6-.2 1.2-.6 1.5-.4.4-1 .6-1.7.6h-.9v-3.9zm.5 3.5h.5c1.1 0 1.7-.6 1.7-1.7 0-.9-.5-1.5-1.6-1.5-.3 0-.5 0-.6.1v3.1zM66.7 11.7c.3-.1.6-.1 1-.1.5 0 .9.1 1.1.3.2.2.3.4.3.7 0 .5-.3.9-.7 1 .3.1.5.4.6.8.1.5.2.9.3 1.1h-.5c-.1-.1-.2-.4-.3-.9-.1-.5-.3-.7-.8-.8h-.5v1.7h-.5v-3.8zm.5 1.8h.5c.5 0 .9-.3.9-.7 0-.5-.4-.7-.9-.7h-.5v1.4zM73.2 13.6c0 1.3-.8 2.1-1.8 2.1s-1.8-.8-1.8-2 .8-2.1 1.8-2.1c1.1 0 1.8.8 1.8 2zm-3.1.1c0 .8.5 1.6 1.3 1.6s1.3-.7 1.3-1.6c0-.8-.4-1.6-1.3-1.6-.9-.1-1.3.7-1.3 1.6zM74.3 11.7v3.9h-.5v-3.9h.5zM75.2 11.7c.3 0 .7-.1 1.1-.1.7 0 1.2.2 1.6.5.3.3.6.8.6 1.4 0 .6-.2 1.2-.6 1.5-.4.4-1 .6-1.7.6h-.9v-3.9zm.5 3.5h.5c1.1 0 1.7-.6 1.7-1.7 0-.9-.5-1.5-1.6-1.5-.3 0-.5 0-.6.1v3.1zM80.9 14.4l-.4 1.2H80l1.3-3.9h.7l1.3 3.9h-.5l-.4-1.2h-1.5zm1.3-.4l-.4-1.1c-.1-.3-.1-.5-.2-.7-.1.2-.1.5-.2.7L81 14h1.2zM83.9 11.7c.2 0 .6-.1 1-.1.5 0 .9.1 1.1.3.2.2.3.5.3.8 0 .4-.1.6-.3.8-.3.3-.7.4-1.2.4h-.4v1.6h-.5v-3.8zm.5 1.9h.4c.6 0 1-.3 1-.8s-.4-.8-.9-.8h-.5v1.6zM87 11.7c.2 0 .6-.1 1-.1.5 0 .9.1 1.1.3.2.2.3.5.3.8 0 .4-.1.6-.3.8-.3.3-.7.4-1.2.4h-.4v1.6H87v-3.8zm.5 1.9h.4c.6 0 1-.3 1-.8s-.4-.8-.9-.8h-.5v1.6zM94.6 13.6c0 1.3-.8 2.1-1.8 2.1s-1.8-.8-1.8-2 .8-2.1 1.8-2.1c1.1 0 1.8.8 1.8 2zm-3 .1c0 .8.5 1.6 1.3 1.6s1.3-.7 1.3-1.6c0-.8-.4-1.6-1.3-1.6-.9-.1-1.3.7-1.3 1.6zM95.3 15.6v-3.9h.6l1.3 2c.3.5.5.9.7 1.3 0-.5-.1-1-.1-1.6v-1.6h.5v3.9h-.5l-1.2-2c-.3-.4-.5-.9-.7-1.3v3.3h-.6z" /><path id="google_play_btn_path46" class="st0" d="M80.2 25.3c-2.1 0-3.9 1.6-3.9 3.8 0 2.2 1.8 3.8 3.9 3.8 2.2 0 3.9-1.6 3.9-3.8 0-2.2-1.7-3.8-3.9-3.8zm0 6.1c-1.2 0-2.2-1-2.2-2.3 0-1.4 1-2.3 2.2-2.3 1.2 0 2.2.9 2.2 2.3s-1 2.3-2.2 2.3zm-8.5-6.1c-2.2 0-3.9 1.6-3.9 3.8 0 2.2 1.8 3.8 3.9 3.8 2.2 0 3.9-1.6 3.9-3.8 0-2.2-1.7-3.8-3.9-3.8zm0 6.1c-1.2 0-2.2-1-2.2-2.3 0-1.4 1-2.3 2.2-2.3 1.2 0 2.2.9 2.2 2.3s-1 2.3-2.2 2.3zm-10.1-5V28h3.9c-.1.9-.4 1.6-.9 2.1-.6.6-1.5 1.2-3.1 1.2-2.4 0-4.3-1.9-4.3-4.3s1.9-4.3 4.3-4.3c1.3 0 2.3.5 3 1.2l1.2-1.2c-1-.9-2.3-1.6-4.1-1.6-3.3 0-6.1 2.7-6.1 6s2.8 6 6.1 6c1.8 0 3.2-.6 4.2-1.7 1.1-1.1 1.4-2.6 1.4-3.8 0-.4 0-.7-.1-1l-5.5-.2zm41.4 1.3c-.3-.9-1.3-2.4-3.3-2.4-2 0-3.7 1.6-3.7 3.8 0 2.2 1.6 3.8 3.9 3.8 1.8 0 2.8-1.1 3.2-1.7l-1.3-.9c-.4.6-1 1.1-1.9 1.1-.9 0-1.5-.4-1.9-1.2l5.2-2.1-.2-.4zM97.7 29c0-1.5 1.2-2.2 2-2.2.7 0 1.3.3 1.4.8L97.7 29zm-4.2 3.7h1.7V21.4h-1.7v11.3zm-2.8-6.6c-.4-.4-1.2-.9-2.1-.9-1.9 0-3.7 1.7-3.7 3.9s1.8 3.8 3.7 3.8c.9 0 1.7-.4 2-.9h.1v.6c0 1.5-.8 2.3-2.1 2.3-1 0-1.7-.7-2-1.4l-1.5.6c.4 1 1.6 2.3 3.4 2.3 2 0 3.7-1.2 3.7-4v-6.9h-1.6l.1.6zm-2 5.3c-1.2 0-2.2-1-2.2-2.3 0-1.4 1-2.3 2.2-2.3 1.2 0 2.1 1 2.1 2.3 0 1.4-.9 2.3-2.1 2.3zm22.3-10h-4.1v11.3h1.7v-4.3h2.4c1.9 0 3.8-1.4 3.8-3.5s-1.9-3.5-3.8-3.5zm.1 5.5h-2.4V23h2.4c1.3 0 2 1 2 1.9 0 .9-.8 2-2 2zm10.5-1.7c-1.2 0-2.5.5-3 1.7l1.5.6c.3-.6.9-.8 1.6-.8.9 0 1.8.5 1.8 1.5v.1c-.3-.2-1-.4-1.8-.4-1.6 0-3.3.9-3.3 2.5 0 1.5 1.3 2.5 2.8 2.5 1.1 0 1.8-.5 2.2-1.1h.1v.9h1.6v-4.3c0-2-1.5-3.2-3.5-3.2zm-.2 6.2c-.6 0-1.3-.3-1.3-1 0-.9 1-1.2 1.8-1.2s1.1.2 1.6.4c-.2 1.1-1.1 1.8-2.1 1.8zm9.7-5.9l-2 4.9h-.1l-2-4.9h-1.8l3 6.8-1.7 3.8h1.8l4.7-10.7-1.9.1zm-15.4 7.2h1.7V21.4h-1.7v11.3z" /><path id="google_play_btn_path20903" class="st0" d="M28.5 34.4L40 22.9 28.5 11.5c-.3.1-.5.5-.5 1.1v20.7c0 .5.2.9.5 1.1z" /><path id="google_play_btn_path20905" class="st0" d="M40.4 22.6l3.4-3.4-13.9-7.6c-.2-.1-.5-.2-.8-.2l11.3 11.2z" /><path id="google_play_btn_path20907" class="st0" d="M40.4 23.2L29.1 34.6c.3 0 .6-.1.8-.2l13.9-7.7-3.4-3.5z" /><path id="google_play_btn_path20909" class="st0" d="M48.9 22l-4.6-2.5-3.5 3.5 3.5 3.5 4.6-2.5c.9-.6.9-1.5 0-2z" /></symbol><symbol viewBox="0 0 512 512" id="home"><path d="M135.7 358.5c-1.9-1.9-4.4-2.9-7.1-2.9-2.6 0-5.2 1.1-7.1 2.9-1.9 1.9-2.9 4.4-2.9 7.1s1.1 5.2 2.9 7.1c1.9 1.9 4.4 2.9 7.1 2.9 2.6 0 5.2-1.1 7.1-2.9s2.9-4.4 2.9-7.1-1-5.2-2.9-7.1zM226.4 358.5c-1.9-1.9-4.4-2.9-7.1-2.9-2.6 0-5.2 1.1-7.1 2.9s-2.9 4.4-2.9 7.1 1.1 5.2 2.9 7.1c1.9 1.9 4.4 2.9 7.1 2.9 2.6 0 5.2-1.1 7.1-2.9 1.9-1.9 2.9-4.4 2.9-7.1s-1-5.2-2.9-7.1zM471.6 358.5c-1.9-1.9-4.4-2.9-7.1-2.9-2.6 0-5.2 1.1-7.1 2.9s-2.9 4.4-2.9 7.1 1.1 5.2 2.9 7.1c1.9 1.9 4.4 2.9 7.1 2.9 2.6 0 5.2-1.1 7.1-2.9 1.9-1.9 2.9-4.4 2.9-7.1s-1-5.2-2.9-7.1zM436.1 96.3c-1.9-1.9-4.4-2.9-7.1-2.9-2.6 0-5.2 1.1-7.1 2.9-1.9 1.9-2.9 4.4-2.9 7.1 0 2.6 1.1 5.2 2.9 7.1s4.4 2.9 7.1 2.9c2.6 0 5.2-1.1 7.1-2.9 1.9-1.9 2.9-4.4 2.9-7.1.1-2.6-1-5.2-2.9-7.1zM361.3 69.2c-3.9-3.9-10.2-3.9-14.1 0l-75.5 75.5c-3.9 3.9-3.9 10.2 0 14.1 2 2 4.5 2.9 7.1 2.9s5.1-1 7.1-2.9l75.5-75.5c3.8-3.9 3.8-10.2-.1-14.1zM150.7 114H138V20.5C138 9.2 128.8 0 117.5 0h-27C79.2 0 70 9.2 70 20.5v9.8H42.5C31.2 30.3 22 39.5 22 50.8V114H10c-5.5 0-10 4.5-10 10s4.5 10 10 10h140.7c5.5 0 10-4.5 10-10s-4.5-10-10-10zm-80.7-.5c0 .3-.2.5-.5.5h-27c-.3 0-.5-.2-.5-.5V50.8c0-.3.2-.5.5-.5h27c.3 0 .5.2.5.5v62.7zm48 0c0 .3-.2.5-.5.5h-27c-.3 0-.5-.2-.5-.5v-93c0-.3.2-.5.5-.5h27c.3 0 .5.2.5.5v93zM85.3 160.9h.1z" /><path d="M486 228c14.3 0 26-11.7 26-26V66c0-14.3-11.7-26-26-26H230c-14.3 0-26 11.7-26 26v136c0 14.3 11.7 26 26 26h95v17.7c0 15.1-12.3 27.3-27.3 27.3H120.1c6.4-8.4 10.2-18.9 10.2-30.3v-24c0-5.5-4.5-10-10-10H97.8c-.1-1.2-.2-2.5-.4-3.9 7.1-1.1 15.6-3.9 22.1-10.5 12.1-12.4 11-31.9 10.7-34.9-.2-2.3-1.1-4.6-2.9-6.4-1.7-1.7-4-2.7-6.3-2.9-4.4-.5-23.7-1.6-35.7 10.6-3.4 3.5-5.8 7.6-7.4 11.7-13.8-8.3-30.6-7.3-33.8-7.1-2.3.2-4.6 1.1-6.4 2.9-1.7 1.7-2.7 4-2.9 6.3-.4 4.3-1.5 20.7 6.3 34.1h-.8c-5.5 0-10 4.5-10 10v24c0 11.4 3.8 21.9 10.2 30.3H10c-5.5 0-10 4.5-10 10v160c0 5.5 4.5 10 10 10h71.3l-12.6 46.3c-.8 3-.2 6.2 1.7 8.7s4.8 3.9 7.9 3.9h44c3.8 0 7.3-2.2 9-5.7l25.7-53.3h198l25.7 53.3c1.7 3.5 5.2 5.7 9 5.7h44c3.1 0 6.1-1.5 7.9-3.9 1.9-2.5 2.5-5.7 1.7-8.7l-12.6-46.3H502c5.5 0 10-4.5 10-10v-160c0-5.5-4.5-10-10-10h-83.7c-15.1 0-27.3-12.3-27.3-27.3V228h95zM99.6 174.9c2.5-2.5 6.3-3.8 10.1-4.4-.7 3.6-2 7.4-4.5 9.9-2.4 2.5-6.2 3.8-9.9 4.5.6-3.6 1.9-7.5 4.3-10zM71 192.3c4.2 4.1 6 10.7 6.6 16.3-5.7-.6-12.4-2.2-16.6-6.3-4.1-4-5.8-10.8-6.3-16.5 5.7.6 12.2 2.4 16.3 6.5zm-20.7 36.5h60v14c0 16.5-13.5 30-30 30s-30-13.5-30-30v-14zM116.1 492H91.4l10.6-38.9h32.7L116.1 492zm47.9-58.9H20v-140h144v140zm164 0H184v-140h144v140zm10-160.3c-.6 0-1.1.1-1.6.1 5.4-7.7 8.6-17.1 8.6-27.2V228h26v17.7c0 10.2 3.2 19.6 8.7 27.3h-39.4c-.7-.1-1.5-.2-2.3-.2zM395.9 492l-18.8-38.9h32.8l10.6 38.9h-24.6zM492 293.1v140H348v-57.5h78.3c5.5 0 10-4.5 10-10s-4.5-10-10-10H348v-62.5h144zM338.6 208l69.8-69.8c3.9-3.9 3.9-10.2 0-14.1-3.9-3.9-10.2-3.9-14.1 0L311 207.4c-.2.2-.4.4-.5.6H230c-3.3 0-6-2.7-6-6V66c0-3.3 2.7-6 6-6h256c3.3 0 6 2.7 6 6v136c0 3.3-2.7 6-6 6H338.6z" /></symbol><symbol viewBox="0 0 512 512" id="info"><path d="M412 136c0 5.5 4.5 10 10 10s10-4.5 10-10-4.5-10-10-10-10 4.5-10 10zM452 256c0 12.8-1.3 25.6-3.8 38-1.1 5.4 2.4 10.7 7.8 11.8.7.1 1.3.2 2 .2 4.7 0 8.8-3.3 9.8-8 2.8-13.7 4.2-27.9 4.2-42 0-31.5-6.8-61.8-20.3-90.1-2.4-5-8.3-7.1-13.3-4.7s-7.1 8.3-4.7 13.3c12.1 25.6 18.3 53 18.3 81.5zM306 346h-10V216c0-5.5-4.5-10-10-10h-80c-5.5 0-10 4.5-10 10v40c0 5.5 4.5 10 10 10h10v80h-10c-5.5 0-10 4.5-10 10v40c0 5.5 4.5 10 10 10h100c5.5 0 10-4.5 10-10v-40c0-5.5-4.5-10-10-10zm-10 40h-80v-20h10c5.5 0 10-4.5 10-10V256c0-5.5-4.5-10-10-10h-10v-20h60v130c0 5.5 4.5 10 10 10h10v20zM256 186c22.1 0 40-17.9 40-40s-17.9-40-40-40-40 17.9-40 40 17.9 40 40 40zm0-60c11 0 20 9 20 20s-9 20-20 20-20-9-20-20 9-20 20-20z" /><path d="M256 0C118 0 0 117.8 0 256c0 47.2 13.5 97.4 36.3 135.4L.5 498.8c-1.2 3.6-.3 7.6 2.4 10.2 2.7 2.7 6.7 3.6 10.2 2.4l107.5-35.8c38 22.8 88.2 36.3 135.4 36.3 138 0 256-117.8 256-256C512 118 394.2 0 256 0zm0 492c-45.3 0-93.4-13.4-128.8-35.7-2.5-1.6-5.6-2-8.5-1l-92.9 31 31-92.9c1-2.9.6-6-1-8.5C33.4 349.4 20 301.3 20 256 20 128.1 128.1 20 256 20s236 108.1 236 236-108.1 236-236 236z" /></symbol><symbol viewBox="0 0 65 65" id="info-circle"><path d="M32.5 0C14.58 0 0 14.579 0 32.5S14.58 65 32.5 65 65 50.421 65 32.5 50.42 0 32.5 0zm0 61C16.785 61 4 48.215 4 32.5S16.785 4 32.5 4 61 16.785 61 32.5 48.215 61 32.5 61z" /><circle cx="33.018" cy="19.541" r="3.345" /><path d="M32.137 28.342a2 2 0 00-2 2v17a2 2 0 004 0v-17a2 2 0 00-2-2z" /></symbol><symbol viewBox="0 0 512 512" id="lessons"><path d="M458.7 224H416c-5.9 0-10.7 4.8-10.7 10.7V256h-32v-71.5L508.9 48.9c4.2-4.2 4.2-10.9 0-15.1L478.2 3.1c-4.2-4.1-11-4.1-15.1 0l-89.7 89.7V74.7c0-17.7-14.3-32-32-32H57.7L18.2 3.1c-2-2-4.7-3.1-7.5-3.1C4.8 0 0 4.8 0 10.7v256c0 5.9 4.8 10.7 10.7 10.7h74.7v64c0 5.9 4.8 10.7 10.7 10.7h309.3v149.3c0 5.9 4.8 10.7 10.7 10.7h85.3c5.9 0 10.7-4.8 10.7-10.7v-224c-.1-29.5-24-53.4-53.4-53.4zm11.9-198.3l15.6 15.6-138.5 138.6-15.6-15.6L470.6 25.7zM341.3 64c5.9 0 10.7 4.8 10.7 10.7v39.5l-42.5 42.5c-1.5 1.5-2.5 3.4-2.9 5.4l-6 29.9h-55.3v21.3h64c.8 0 1.6-.1 2.3-.3l38.1-7.6c.8-.1 1.5-.4 2.2-.7V256H271L79.1 64h262.2zm-320-27.6L240.9 256H21.3V36.4zm352 294.3v-21.3H352v21.3h-21.3v-21.3h-21.3v21.3H288v-21.3h-21.3v21.3h-21.3v-21.3H224v21.3h-21.3v-21.3h-21.3v21.3H160v-21.3h-21.3v21.3h-32v-53.3h298.7v53.3h-32.1zm117.4 160h-64V245.3h32c17.7 0 32 14.3 32 32v213.4z" /><circle cx="458.7" cy="448" r="21.3" /><path d="M146.2 231.5c4.2-4.2 4.2-10.9 0-15.1l-85.3-85.3c-2-2-4.7-3.1-7.5-3.1-5.9 0-10.7 4.8-10.7 10.7V224c0 5.9 4.8 10.7 10.7 10.7h85.3c2.8 0 5.5-1.2 7.5-3.2zM64 213.3v-48.9l48.9 48.9H64zM352 480c0 5.9-4.8 10.7-10.7 10.7H32c-5.9 0-10.7-4.8-10.7-10.7V298.7H0V480c0 17.7 14.3 32 32 32h309.3c17.7 0 32-14.3 32-32V373.3H352V480z" /><path d="M42.7 416v42.7c0 5.9 4.8 10.7 10.7 10.7H96V448H64v-32H42.7zM117.3 448h21.3v21.3h-21.3z" /></symbol><symbol viewBox="0 0 512 512" id="location"><path d="M256 0C156.748 0 76 80.748 76 180c0 33.534 9.289 66.26 26.869 94.652l142.885 230.257A15 15 0 00258.499 512h.119a14.997 14.997 0 0012.75-7.292L410.611 272.22C427.221 244.428 436 212.539 436 180 436 80.748 355.252 0 256 0zm128.866 256.818L258.272 468.186l-129.905-209.34C113.734 235.214 105.8 207.95 105.8 180c0-82.71 67.49-150.2 150.2-150.2S406.1 97.29 406.1 180c0 27.121-7.411 53.688-21.234 76.818z" /><path d="M256 90c-49.626 0-90 40.374-90 90 0 49.309 39.717 90 90 90 50.903 0 90-41.233 90-90 0-49.626-40.374-90-90-90zm0 150.2c-33.257 0-60.2-27.033-60.2-60.2 0-33.084 27.116-60.2 60.2-60.2s60.1 27.116 60.1 60.2c0 32.683-26.316 60.2-60.1 60.2z" /></symbol><symbol viewBox="0 0 265.252 265.252" id="minus"><path d="M132.632 0C59.503 0 0 59.492 0 132.626s59.498 132.626 132.632 132.626 132.621-59.492 132.621-132.626S205.76 0 132.632 0zm0 252.623c-66.166 0-119.997-53.83-119.997-119.997S66.465 12.635 132.632 12.635c66.161 0 119.991 53.83 119.991 119.997s-53.831 119.991-119.991 119.991z" /><path d="M197.416 138.065H63.251c-3.008 0-5.439-2.437-5.439-5.439s2.431-5.439 5.439-5.439h134.165c3.002 0 5.439 2.437 5.439 5.439s-2.436 5.439-5.439 5.439z" /></symbol><symbol viewBox="0 0 510 510" id="notifications-button"><path d="M255 510c28.05 0 51-22.95 51-51H204c0 28.05 22.95 51 51 51zm165.75-153V216.75c0-79.05-53.55-142.8-127.5-160.65V38.25C293.25 17.85 275.4 0 255 0s-38.25 17.85-38.25 38.25V56.1c-73.95 17.85-127.5 81.6-127.5 160.65V357l-51 51v25.5h433.5V408l-51-51z" /></symbol><symbol viewBox="0 0 528.899 528.899" id="pencil"><path d="M328.883 89.125l107.59 107.589-272.34 272.34L56.604 361.465l272.279-272.34zm189.23-25.948l-47.981-47.981c-18.543-18.543-48.653-18.543-67.259 0l-45.961 45.961 107.59 107.59 53.611-53.611c14.382-14.383 14.382-37.577 0-51.959zM.3 512.69c-1.958 8.812 5.998 16.708 14.811 14.565l119.891-29.069L27.473 390.597.3 512.69z" /></symbol><symbol viewBox="0 0 314.1 314.1" id="play-button"><path d="M293 78.5C249.6 3.4 153.6-22.3 78.5 21.1S-22.3 160.4 21.1 235.5 160.5 336.3 235.6 293c75-43.4 100.8-139.4 57.4-214.5zm-73.2 187.3c-60.1 34.7-136.9 14.1-171.6-46S34.2 82.9 94.3 48.2c60.1-34.7 136.9-14.1 171.6 46 34.6 60.1 14 136.9-46.1 171.6zm-6.2-115.2l-82.2-47.9c-7.5-4.4-13.5-.9-13.5 7.8l.4 95.2c0 8.7 6.2 12.2 13.7 7.9l81.6-47.1c7.4-4.4 7.4-11.5 0-15.9z" /></symbol><symbol viewBox="0 0 490.2 490.2" id="plus"><path d="M418.5 418.5c95.6-95.6 95.6-251.2 0-346.8s-251.2-95.6-346.8 0-95.6 251.2 0 346.8 251.2 95.6 346.8 0zM89 89c86.1-86.1 226.1-86.1 312.2 0s86.1 226.1 0 312.2-226.1 86.1-312.2 0S3 175.1 89 89z" /><path d="M245.1 336.9c3.4 0 6.4-1.4 8.7-3.6 2.2-2.2 3.6-5.3 3.6-8.7v-67.3h67.3c3.4 0 6.4-1.4 8.7-3.6 2.2-2.2 3.6-5.3 3.6-8.7 0-6.8-5.5-12.3-12.2-12.2h-67.3v-67.3c0-6.8-5.5-12.3-12.2-12.2-6.8 0-12.3 5.5-12.2 12.2v67.3h-67.3c-6.8 0-12.3 5.5-12.2 12.2 0 6.8 5.5 12.3 12.2 12.2h67.3v67.3c-.3 6.9 5.2 12.4 12 12.4z" /></symbol><symbol viewBox="0 0 512 512" id="quotes"><path d="M228 119c5.5 0 10-4.5 10-10V77c0-27.6-22.4-50-50-50H50C22.4 27 0 49.4 0 77v120c0 27.6 22.4 50 50 50h64.7c-2.3 74.7-30.6 113.5-86.5 118.6-5.2.5-9.1 4.8-9.1 10V475c0 2.8 1.1 5.4 3.1 7.3 1.9 1.8 4.3 2.7 6.9 2.7h.6c68.9-3.9 121.5-27.6 156.3-70.5 34.5-42.4 52-104.5 52-184.3v-35.8c0-5.5-4.5-10-10-10s-10 4.5-10 10v35.8c0 146.6-58.5 223.3-178.9 234.1v-79.8c30.4-4.7 53.9-18.9 70-42.2 17-24.7 25.7-60.1 25.7-105.3 0-5.5-4.5-10-10-10H50c-16.5 0-30-13.5-30-30V77c0-16.5 13.5-30 30-30h138c16.5 0 30 13.5 30 30v32c0 5.5 4.5 10 10 10zM462 27H324c-27.6 0-50 22.4-50 50v120c0 27.6 22.4 50 50 50h64.7c-2.3 74.7-30.6 113.5-86.5 118.6-5.1.5-9.1 4.8-9.1 10V475c0 2.8 1.1 5.4 3.1 7.3 1.9 1.8 4.3 2.7 6.9 2.7h.6c68.9-3.9 121.5-27.6 156.3-70.5 34.5-42.4 52-104.5 52-184.3V77c0-27.6-22.4-50-50-50zm30 203.2c0 146.6-58.5 223.3-178.9 234.1v-79.8c30.4-4.7 53.9-18.9 70-42.2 17-24.7 25.7-60.1 25.7-105.3 0-5.5-4.5-10-10-10H324c-16.5 0-30-13.5-30-30V77c0-16.5 13.5-30 30-30h120v74c0 5.5 4.5 10 10 10s10-4.5 10-10V47c15.6 1 28 14.1 28 29.9v153.3z" /><path d="M454 145.8c-5.5 0-10 4.5-10 10s4.5 10 10 10 10-4.5 10-10v-.1c0-5.5-4.5-9.9-10-9.9zM228 141.7c-5.5 0-10 4.5-10 10v.2c0 5.5 4.5 10 10 10s10-4.5 10-10v-.2c0-5.6-4.5-10-10-10z" /></symbol><symbol viewBox="0 0 512 512" id="right-pro"><path d="M174 377.1c-.1 0-.2 0-.3-.1 9.4-10.5 15.1-24.2 15.1-39.3v-44.3c0-26.1-21.2-47.3-47.3-47.3H80.7c-5.5 0-10 4.5-10 10v81.7c0 15.1 5.7 28.9 15.1 39.3-.1 0-.2 0-.3.1-43.2 4-77.2 40.4-77.2 84.7V502c0 5.5 4.5 10 10 10h222.9c5.5 0 10-4.5 10-10v-40.3c0-44.2-34-80.6-77.2-84.6zm-44.3-.4c-21.5 0-39-17.5-39-39v-17.9c5.4 3 11.7 4.7 18.3 4.7h59.8v13.2c0 21.5-17.5 39-39.1 39zm17.5 20l-17.4 17.4-17.4-17.4h34.8zM90.7 266h50.7c15.1 0 27.3 12.3 27.3 27.3v11.1H109c-10.1 0-18.3-8.2-18.3-18.3V266zM28.3 492v-30.3c0-32.9 24.6-60.2 56.3-64.4l38 38c2 2 4.5 2.9 7.1 2.9 2.6 0 5.1-1 7.1-2.9l38-38c31.8 4.3 56.3 31.5 56.3 64.4V492H28.3zM454.4 384.5c7.7-7.6 12.5-18.2 12.5-29.9V314c0-23.1-11.6-43.5-29.2-55.8.2-.7.2-1.4.2-2.2v-23.8c23.4-2.9 41.5-22.9 41.5-47.1V84.9c0-26.2-21.3-47.5-47.5-47.5H276.5c-26.2 0-47.5 21.3-47.5 47.5v100.2c0 26.2 21.3 47.5 47.5 47.5h113.9l13.6 13.6c-1.7-.1-3.4-.2-5.1-.2-37.5 0-68 30.5-68 68v40.7c0 11.7 4.8 22.2 12.5 29.9-29.1 13.4-49.3 42.9-49.3 77V502c0 5.5 4.5 10 10 10h189.7c5.5 0 10-4.5 10-10v-40.5c-.1-34.1-20.3-63.6-49.4-77zm-52.9-169c-1.9-1.9-4.4-2.9-7.1-2.9h-118c-15.1 0-27.5-12.3-27.5-27.5V84.9c0-15.1 12.3-27.5 27.5-27.5h155.5c15.1 0 27.5 12.3 27.5 27.5v.5H396c-5.5 0-10 4.5-10 10s4.5 10 10 10h63.4v79.7c0 15.1-12.3 27.5-27.5 27.5h-4.1c-5.5 0-10 4.5-10 10v9.3l-16.3-16.4zM350.9 314c0-26.5 21.5-48 48-48s48 21.5 48 48v40.7c0 12.2-9.9 22.1-22.1 22.1H373c-12.2 0-22.1-9.9-22.1-22.1V314zm132.8 178H314v-30.5c0-35.7 29.1-64.8 64.8-64.8H419c35.7 0 64.8 29.1 64.8 64.8V492zM213 0H96.7C70.5 0 49.2 21.3 49.2 47.5v100.2c0 24.2 18.1 44.2 41.5 47.1v23.8c0 4 2.4 7.7 6.2 9.2 1.2.5 2.5.8 3.8.8 2.6 0 5.2-1 7.1-2.9l30.5-30.5h52c5.5 0 10-4.5 10-10s-4.5-10-10-10h-56.1c-2.7 0-5.2 1.1-7.1 2.9l-16.3 16.3v-9.3c0-5.5-4.5-10-10-10h-4.1c-15.1 0-27.5-12.3-27.5-27.5V47.5C69.2 32.3 81.5 20 96.7 20H213c5.5 0 10-4.5 10-10s-4.5-10-10-10zM259.2 2.9C257.3 1 254.8 0 252.1 0c-2.6 0-5.2 1.1-7.1 2.9-1.9 1.9-2.9 4.4-2.9 7.1s1.1 5.2 2.9 7.1c1.8 1.9 4.4 2.9 7.1 2.9 2.6 0 5.2-1.1 7.1-2.9 1.9-1.9 2.9-4.4 2.9-7.1s-1-5.2-2.9-7.1z" /><path d="M361.3 88.4c-1.9-1.9-4.4-2.9-7.1-2.9-2.6 0-5.2 1.1-7.1 2.9-1.9 1.9-2.9 4.4-2.9 7.1s1.1 5.2 2.9 7.1 4.4 2.9 7.1 2.9 5.2-1.1 7.1-2.9c1.9-1.9 2.9-4.4 2.9-7.1s-1.1-5.2-2.9-7.1z" /></symbol><symbol viewBox="0 0 473.932 473.932" id="share"><path d="M385.513 301.214c-27.438 0-51.64 13.072-67.452 33.09l-146.66-75.002c1.92-7.161 3.3-14.56 3.3-22.347 0-8.477-1.639-16.458-3.926-24.224l146.013-74.656c15.725 20.924 40.553 34.6 68.746 34.6 47.758 0 86.391-38.633 86.391-86.348C471.926 38.655 433.292 0 385.535 0c-47.65 0-86.326 38.655-86.326 86.326 0 7.809 1.381 15.229 3.322 22.412L155.892 183.74c-15.833-20.039-40.079-33.154-67.56-33.154-47.715 0-86.326 38.676-86.326 86.369s38.612 86.348 86.326 86.348c28.236 0 53.043-13.719 68.832-34.664l145.948 74.656c-2.287 7.744-3.947 15.79-3.947 24.289 0 47.693 38.676 86.348 86.326 86.348 47.758 0 86.391-38.655 86.391-86.348.022-47.736-38.611-86.37-86.369-86.37z" /></symbol><symbol viewBox="0 0 512 512" id="talk"><path d="M437 150h-45V75c0-41.355-33.645-75-75-75H75C33.645 0 0 33.645 0 75v150c0 36.219 25.809 66.523 60 73.492V345a15.01 15.01 0 007.922 13.227 15.01 15.01 0 0015.398-.747L120 333.027V375c0 41.355 33.645 75 75 75h147.332l86.16 59.352a14.989 14.989 0 0015.485.925A14.994 14.994 0 00452 497v-48.508c34.191-6.969 60-37.273 60-73.492V225c0-41.355-33.645-75-75-75zM75 270c-24.813 0-45-20.188-45-45V75c0-24.813 20.188-45 45-45h242c24.813 0 45 20.188 45 45v150c0 24.813-20.188 45-45 45H165c-2.96 0-5.855.875-8.32 2.52L90 316.973V285c0-8.285-6.715-15-15-15zm407 105c0 24.813-20.188 45-45 45-8.285 0-15 6.715-15 15v33.453l-66.488-45.805A14.993 14.993 0 00347 420H195c-24.813 0-45-20.188-45-45v-61.973L169.543 300H317c41.355 0 75-33.645 75-75v-45h45c24.813 0 45 20.188 45 45zm0 0" /><path d="M105 105h122c8.285 0 15-6.715 15-15s-6.715-15-15-15H105c-8.285 0-15 6.715-15 15s6.715 15 15 15zm0 0M105 165h122c8.285 0 15-6.715 15-15s-6.715-15-15-15H105c-8.285 0-15 6.715-15 15s6.715 15 15 15zm0 0M105 225h182c8.285 0 15-6.715 15-15s-6.715-15-15-15H105c-8.285 0-15 6.715-15 15s6.715 15 15 15zm0 0M302 90c0 8.285-6.715 15-15 15s-15-6.715-15-15 6.715-15 15-15 15 6.715 15 15zm0 0M302 150c0 8.285-6.715 15-15 15s-15-6.715-15-15 6.715-15 15-15 15 6.715 15 15zm0 0M407 345H227c-8.285 0-15 6.715-15 15s6.715 15 15 15h180c8.285 0 15-6.715 15-15s-6.715-15-15-15zm0 0" /></symbol><symbol viewBox="0 0 491.858 491.858" id="video-camera"><path d="M357.714 423.331c0 9.328-10.676 16.891-23.847 16.891H23.847C10.676 440.222 0 432.659 0 423.331V203.735c0-9.33 10.676-16.892 23.847-16.892h310.02c13.171 0 23.847 7.564 23.847 16.892v219.596z" /><circle cx="89.428" cy="118.706" r="59.619" /><circle cx="253.381" cy="103.801" r="74.524" /><path d="M491.858 447.677s-1.986 14.904-15.899 14.904c-13.912 0-103.34-83.42-103.34-94.397V258.882c0-10.976 87.443-94.398 103.34-94.398 15.899 0 15.899 14.905 15.899 14.905v268.288z" /></symbol><symbol viewBox="0 0 512 512" id="wellness"><path d="M353 344.1c-3.9-3.9-10.3-3.8-14.1.1l-.3.3c-3.9 3.9-3.8 10.3.1 14.1 1.9 1.9 4.5 2.9 7 2.9 2.6 0 5.2-1 7.1-3l.3-.3c3.9-3.9 3.8-10.2-.1-14.1zM460.6 239.3H434v-26.6c0-5.5-4.5-10-10-10s-10 4.5-10 10v26.6h-26.6c-5.5 0-10 4.5-10 10s4.5 10 10 10H414v26.6c0 5.5 4.5 10 10 10s10-4.5 10-10v-26.6h26.6c5.5 0 10-4.5 10-10s-4.5-10-10-10z" /><path d="M456.7 167.6c-9.3-69-67-120.7-135.5-120.7-34.6 0-66.9 12.9-92.1 36.5-25.2-23.6-57.6-36.5-92.1-36.5C61.4 46.9 0 109.8 0 187c0 15.3 4.5 32.4 13.3 51.3H10c-5.5 0-10 4.5-10 10s4.5 10 10 10h14c18.7 31.6 48.2 67.6 88.5 107.6 54.6 54.3 109.9 96.7 110.5 97.2 1.8 1.4 3.9 2.1 6.1 2.1s4.3-.7 6.1-2.1c.4-.3 42.8-32.8 89.7-77 4-3.8 4.2-10.1.4-14.1-3.8-4-10.1-4.2-14.1-.4-35.8 33.7-68.8 60.5-82 70.9-15.7-12.4-59.4-47.9-102.6-90.8C92 317.3 65.5 286 47.7 258.4H137c4.5 0 8.4-3 9.6-7.2l17.5-60.9 48.4 155c1.3 4.2 5.2 7 9.5 7s8.2-2.8 9.5-7l26.8-85.9H303c5.5 0 10-4.5 10-10s-4.5-10-10-10h-52c-4.4 0-8.2 2.8-9.5 7L222 308.6l-48.8-156.3c-1.3-4.2-5.2-7.1-9.7-7-4.4.1-8.3 3-9.5 7.2l-24.6 85.8H35.6C25.3 218.8 20 201.6 20 187c0-66.2 52.4-120.1 116.9-120.1 32.4 0 62.5 13.3 84.8 37.5 1.9 2.1 4.6 3.2 7.4 3.2s5.5-1.2 7.4-3.2c22.3-24.2 52.4-37.5 84.8-37.5 55.7 0 103.1 40.2 114.3 95.1-3.8-.5-7.6-.7-11.5-.7-48.5 0-88 39.5-88 88s39.5 88 88 88 88-39.5 88-88c-.1-37-23-68.7-55.4-81.7zM424 317.3c-37.5 0-68-30.5-68-68s30.5-68 68-68 68 30.5 68 68-30.5 68-68 68z" /></symbol></defs></svg>